<svg width="320" height="89" viewBox="0 0 320 89" fill="none" xmlns="http://www.w3.org/2000/svg">
<path d="M8.82914 63C8.33241 63 8.08404 62.8226 8.08404 62.4678C8.08404 62.0775 8.43885 61.8291 9.14846 61.7227L10.2129 61.563C10.9935 61.4566 11.5257 61.2792 11.8095 61.0308C12.1288 60.747 12.3595 60.2325 12.5014 59.4874L19.7395 28.1934C19.9169 27.4483 19.9169 26.9516 19.7395 26.7032C19.562 26.4549 19.1185 26.2597 18.4089 26.1178L17.3445 25.9049C16.8833 25.7985 16.6526 25.6033 16.6526 25.3195C16.6526 24.8937 16.972 24.6808 17.6106 24.6808H27.2436C27.7758 24.6808 27.9887 24.8937 27.8823 25.3195C27.8113 25.6388 27.5807 25.834 27.1904 25.9049L25.7002 26.1178C24.9196 26.2242 24.3874 26.4194 24.1036 26.7032C23.8197 26.9871 23.5891 27.5016 23.4117 28.2466L16.493 58.0504C16.2091 59.3277 16.3865 60.2502 17.0252 60.8179C17.6638 61.3856 18.5863 61.6695 19.7927 61.6695C21.1409 61.6695 22.5247 61.155 23.9439 60.1261C25.3631 59.0971 26.534 57.4828 27.4565 55.2829L29.0531 51.5575C29.2305 51.0962 29.5144 50.8656 29.9047 50.8656C30.4369 50.8656 30.6143 51.1672 30.4369 51.7704L27.4565 61.7759C27.2436 62.592 26.7114 63 25.8599 63H8.82914ZM37.7659 63C37.7659 63 37.7659 62.8435 37.7659 62.5304V61.4347V60.3455V59.8693H38.2355H39.3313H40.4205H40.8966C40.8966 59.8693 40.8966 60.0281 40.8966 60.3455V59.8693H41.3662H42.4619H43.5511H44.0272C44.0272 59.8693 44.0272 60.0281 44.0272 60.3455V59.8693H44.4968H45.5926H46.6818H47.1579C47.1579 59.8693 47.1579 60.0281 47.1579 60.3455V61.4347V62.5304V63C47.1579 63 46.9992 63 46.6818 63H45.5926H44.4968H44.0272C44.0272 63 44.0272 62.8435 44.0272 62.5304V63C44.0272 63 43.8685 63 43.5511 63H42.4619H41.3662H40.8966C40.8966 63 40.8966 62.8435 40.8966 62.5304V63C40.8966 63 40.7379 63 40.4205 63H39.3313H38.2355H37.7659ZM34.6353 59.8693C34.6353 59.8693 34.6353 59.7128 34.6353 59.3998V58.304V57.2148V56.7387C34.6353 56.7387 34.6353 56.5822 34.6353 56.2691V55.1734V54.0842V53.608C34.6353 53.608 34.6353 53.4515 34.6353 53.1385V52.0427V50.9535V50.4774C34.6353 50.4774 34.6353 50.3209 34.6353 50.0078V48.9121V47.8229V47.3467C34.6353 47.3467 34.6353 47.1902 34.6353 46.8771V45.7814V44.6922V44.2161C34.6353 44.2161 34.6353 44.0596 34.6353 43.7465V42.6508V41.5616V41.0854H35.1049H36.2006H37.2898H37.7659C37.7659 41.0854 37.7659 41.2442 37.7659 41.5616V42.6508V43.7465V44.2161C37.7659 44.2161 37.6072 44.2161 37.2898 44.2161H37.7659C37.7659 44.2161 37.7659 44.3748 37.7659 44.6922V45.7814V46.8771V47.3467C37.7659 47.3467 37.6072 47.3467 37.2898 47.3467H37.7659C37.7659 47.3467 37.7659 47.5055 37.7659 47.8229V48.9121V50.0078V50.4774C37.7659 50.4774 37.6072 50.4774 37.2898 50.4774H37.7659C37.7659 50.4774 37.7659 50.6361 37.7659 50.9535V52.0427V53.1385V53.608C37.7659 53.608 37.6072 53.608 37.2898 53.608H37.7659C37.7659 53.608 37.7659 53.7668 37.7659 54.0842V55.1734V56.2691V56.7387C37.7659 56.7387 37.6072 56.7387 37.2898 56.7387H37.7659C37.7659 56.7387 37.7659 56.8974 37.7659 57.2148V58.304V59.3998V59.8693C37.7659 59.8693 37.6072 59.8693 37.2898 59.8693H36.2006H35.1049H34.6353ZM47.1579 59.8693C47.1579 59.8693 47.1579 59.7128 47.1579 59.3998V58.304V57.2148V56.7387C47.1579 56.7387 47.1579 56.5822 47.1579 56.2691V55.1734V54.0842V53.608C47.1579 53.608 47.1579 53.4515 47.1579 53.1385V52.0427V50.9535V50.4774C47.1579 50.4774 47.1579 50.3209 47.1579 50.0078V48.9121V47.8229V47.3467C47.1579 47.3467 47.1579 47.1902 47.1579 46.8771V45.7814V44.6922V44.2161C47.1579 44.2161 47.1579 44.0596 47.1579 43.7465V42.6508V41.5616V41.0854H47.6275H48.7232H49.8124H50.2885C50.2885 41.0854 50.2885 41.2442 50.2885 41.5616V42.6508V43.7465V44.2161C50.2885 44.2161 50.1298 44.2161 49.8124 44.2161H50.2885C50.2885 44.2161 50.2885 44.3748 50.2885 44.6922V45.7814V46.8771V47.3467C50.2885 47.3467 50.1298 47.3467 49.8124 47.3467H50.2885C50.2885 47.3467 50.2885 47.5055 50.2885 47.8229V48.9121V50.0078V50.4774C50.2885 50.4774 50.1298 50.4774 49.8124 50.4774H50.2885C50.2885 50.4774 50.2885 50.6361 50.2885 50.9535V52.0427V53.1385V53.608C50.2885 53.608 50.1298 53.608 49.8124 53.608H50.2885C50.2885 53.608 50.2885 53.7668 50.2885 54.0842V55.1734V56.2691V56.7387C50.2885 56.7387 50.1298 56.7387 49.8124 56.7387H50.2885C50.2885 56.7387 50.2885 56.8974 50.2885 57.2148V58.304V59.3998V59.8693C50.2885 59.8693 50.1298 59.8693 49.8124 59.8693H48.7232H47.6275H47.1579ZM37.7659 41.0854C37.7659 41.0854 37.7659 40.9289 37.7659 40.6158V39.5201V38.4309V37.9548H38.2355H39.3313H40.4205H40.8966C40.8966 37.9548 40.8966 38.1135 40.8966 38.4309V37.9548H41.3662H42.4619H43.5511H44.0272C44.0272 37.9548 44.0272 38.1135 44.0272 38.4309V37.9548H44.4968H45.5926H46.6818H47.1579C47.1579 37.9548 47.1579 38.1135 47.1579 38.4309V39.5201V40.6158V41.0854C47.1579 41.0854 46.9992 41.0854 46.6818 41.0854H45.5926H44.4968H44.0272C44.0272 41.0854 44.0272 40.9289 44.0272 40.6158V41.0854C44.0272 41.0854 43.8685 41.0854 43.5511 41.0854H42.4619H41.3662H40.8966C40.8966 41.0854 40.8966 40.9289 40.8966 40.6158V41.0854C40.8966 41.0854 40.7379 41.0854 40.4205 41.0854H39.3313H38.2355H37.7659ZM57.6013 63C57.6013 63 57.6013 62.8435 57.6013 62.5304V61.4347V60.3455V59.8693H58.0709H59.1666H60.2558H60.7319C60.7319 59.8693 60.7319 60.0281 60.7319 60.3455V59.8693H61.2015H62.2973H63.3865H63.8626C63.8626 59.8693 63.8626 60.0281 63.8626 60.3455V61.4347V62.5304V63C63.8626 63 63.7039 63 63.3865 63H62.2973H61.2015H60.7319C60.7319 63 60.7319 62.8435 60.7319 62.5304V63C60.7319 63 60.5732 63 60.2558 63H59.1666H58.0709H57.6013ZM54.4706 59.8693C54.4706 59.8693 54.4706 59.7128 54.4706 59.3998V58.304V57.2148V56.7387C54.4706 56.7387 54.4706 56.5822 54.4706 56.2691V55.1734V54.0842V53.608H54.9402H56.036H57.1252H57.6013C57.6013 53.608 57.6013 53.7668 57.6013 54.0842V55.1734V56.2691V56.7387C57.6013 56.7387 57.4426 56.7387 57.1252 56.7387H57.6013C57.6013 56.7387 57.6013 56.8974 57.6013 57.2148V58.304V59.3998V59.8693C57.6013 59.8693 57.4426 59.8693 57.1252 59.8693H56.036H54.9402H54.4706ZM57.6013 53.608C57.6013 53.608 57.6013 53.4515 57.6013 53.1385V52.0427V50.9535V50.4774H58.0709H59.1666H60.2558H60.7319C60.7319 50.4774 60.7319 50.6361 60.7319 50.9535V50.4774H61.2015H62.2973H63.3865H63.8626C63.8626 50.4774 63.8626 50.6361 63.8626 50.9535V50.4774H64.3322H65.4279H66.5171H66.9932C66.9932 50.4774 66.9932 50.6361 66.9932 50.9535V50.4774C66.9932 50.4774 66.9932 50.3209 66.9932 50.0078V48.9121V47.8229V47.3467C66.9932 47.3467 66.9932 47.1902 66.9932 46.8771V45.7814V44.6922V44.2161C66.9932 44.2161 66.9932 44.0596 66.9932 43.7465V42.6508V41.5616V41.0854H67.4628H68.5586H69.6478H70.1239C70.1239 41.0854 70.1239 41.2442 70.1239 41.5616V42.6508V43.7465V44.2161C70.1239 44.2161 69.9652 44.2161 69.6478 44.2161H70.1239C70.1239 44.2161 70.1239 44.3748 70.1239 44.6922V45.7814V46.8771V47.3467C70.1239 47.3467 69.9652 47.3467 69.6478 47.3467H70.1239C70.1239 47.3467 70.1239 47.5055 70.1239 47.8229V48.9121V50.0078V50.4774C70.1239 50.4774 69.9652 50.4774 69.6478 50.4774H70.1239C70.1239 50.4774 70.1239 50.6361 70.1239 50.9535V52.0427V53.1385V53.608C70.1239 53.608 69.9652 53.608 69.6478 53.608H70.1239C70.1239 53.608 70.1239 53.7668 70.1239 54.0842V55.1734V56.2691V56.7387C70.1239 56.7387 69.9652 56.7387 69.6478 56.7387H70.1239C70.1239 56.7387 70.1239 56.8974 70.1239 57.2148V58.304V59.3998V59.8693C70.1239 59.8693 69.9652 59.8693 69.6478 59.8693H70.1239C70.1239 59.8693 70.1239 60.0281 70.1239 60.3455V61.4347V62.5304V63C70.1239 63 69.9652 63 69.6478 63H68.5586H67.4628H66.9932C66.9932 63 66.9932 62.8435 66.9932 62.5304V61.4347V60.3455V59.8693C66.9932 59.8693 66.9932 59.7128 66.9932 59.3998V59.8693C66.9932 59.8693 66.8345 59.8693 66.5171 59.8693H65.4279H64.3322H63.8626C63.8626 59.8693 63.8626 59.7128 63.8626 59.3998V58.304V57.2148V56.7387H64.3322H65.4279H66.5171H66.9932C66.9932 56.7387 66.9932 56.8974 66.9932 57.2148V56.7387C66.9932 56.7387 66.9932 56.5822 66.9932 56.2691V55.1734V54.0842V53.608C66.9932 53.608 66.9932 53.4515 66.9932 53.1385V53.608C66.9932 53.608 66.8345 53.608 66.5171 53.608H65.4279H64.3322H63.8626C63.8626 53.608 63.8626 53.4515 63.8626 53.1385V53.608C63.8626 53.608 63.7039 53.608 63.3865 53.608H62.2973H61.2015H60.7319C60.7319 53.608 60.7319 53.4515 60.7319 53.1385V53.608C60.7319 53.608 60.5732 53.608 60.2558 53.608H59.1666H58.0709H57.6013ZM54.4706 44.2161C54.4706 44.2161 54.4706 44.0596 54.4706 43.7465V42.6508V41.5616V41.0854H54.9402H56.036H57.1252H57.6013C57.6013 41.0854 57.6013 41.2442 57.6013 41.5616V42.6508V43.7465V44.2161C57.6013 44.2161 57.4426 44.2161 57.1252 44.2161H56.036H54.9402H54.4706ZM57.6013 41.0854C57.6013 41.0854 57.6013 40.9289 57.6013 40.6158V39.5201V38.4309V37.9548H58.0709H59.1666H60.2558H60.7319C60.7319 37.9548 60.7319 38.1135 60.7319 38.4309V37.9548H61.2015H62.2973H63.3865H63.8626C63.8626 37.9548 63.8626 38.1135 63.8626 38.4309V37.9548H64.3322H65.4279H66.5171H66.9932C66.9932 37.9548 66.9932 38.1135 66.9932 38.4309V39.5201V40.6158V41.0854C66.9932 41.0854 66.8345 41.0854 66.5171 41.0854H65.4279H64.3322H63.8626C63.8626 41.0854 63.8626 40.9289 63.8626 40.6158V41.0854C63.8626 41.0854 63.7039 41.0854 63.3865 41.0854H62.2973H61.2015H60.7319C60.7319 41.0854 60.7319 40.9289 60.7319 40.6158V41.0854C60.7319 41.0854 60.5732 41.0854 60.2558 41.0854H59.1666H58.0709H57.6013ZM75.8774 63C75.8774 63 75.8774 62.8435 75.8774 62.5304V61.4347V60.3455V59.8693C75.8774 59.8693 75.8774 59.7128 75.8774 59.3998V58.304V57.2148V56.7387C75.8774 56.7387 75.8774 56.5822 75.8774 56.2691V55.1734V54.0842V53.608C75.8774 53.608 75.8774 53.4515 75.8774 53.1385V52.0427V50.9535V50.4774C75.8774 50.4774 75.8774 50.3209 75.8774 50.0078V48.9121V47.8229V47.3467C75.8774 47.3467 75.8774 47.1902 75.8774 46.8771V45.7814V44.6922V44.2161C75.8774 44.2161 75.8774 44.0596 75.8774 43.7465V42.6508V41.5616V41.0854C75.8774 41.0854 75.8774 40.9289 75.8774 40.6158V39.5201V38.4309V37.9548H76.347H77.4428H78.532H79.0081C79.0081 37.9548 79.0081 38.1135 79.0081 38.4309V39.5201V40.6158V41.0854C79.0081 41.0854 78.8494 41.0854 78.532 41.0854H79.0081C79.0081 41.0854 79.0081 41.2442 79.0081 41.5616V41.0854H79.4777H80.5734H81.6626H82.1387C82.1387 41.0854 82.1387 41.2442 82.1387 41.5616V42.6508V43.7465V44.2161C82.1387 44.2161 81.98 44.2161 81.6626 44.2161H80.5734H79.4777H79.0081C79.0081 44.2161 79.0081 44.0596 79.0081 43.7465V44.2161C79.0081 44.2161 78.8494 44.2161 78.532 44.2161H79.0081C79.0081 44.2161 79.0081 44.3748 79.0081 44.6922V45.7814V46.8771V47.3467C79.0081 47.3467 78.8494 47.3467 78.532 47.3467H79.0081C79.0081 47.3467 79.0081 47.5055 79.0081 47.8229V48.9121V50.0078V50.4774C79.0081 50.4774 78.8494 50.4774 78.532 50.4774H79.0081C79.0081 50.4774 79.0081 50.6361 79.0081 50.9535V52.0427V53.1385V53.608C79.0081 53.608 78.8494 53.608 78.532 53.608H79.0081C79.0081 53.608 79.0081 53.7668 79.0081 54.0842V55.1734V56.2691V56.7387C79.0081 56.7387 78.8494 56.7387 78.532 56.7387H79.0081C79.0081 56.7387 79.0081 56.8974 79.0081 57.2148V58.304V59.3998V59.8693C79.0081 59.8693 78.8494 59.8693 78.532 59.8693H79.0081C79.0081 59.8693 79.0081 60.0281 79.0081 60.3455V61.4347V62.5304V63C79.0081 63 78.8494 63 78.532 63H77.4428H76.347H75.8774ZM88.4 63C88.4 63 88.4 62.8435 88.4 62.5304V61.4347V60.3455V59.8693C88.4 59.8693 88.4 59.7128 88.4 59.3998V58.304V57.2148V56.7387C88.4 56.7387 88.4 56.5822 88.4 56.2691V55.1734V54.0842V53.608C88.4 53.608 88.4 53.4515 88.4 53.1385V52.0427V50.9535V50.4774C88.4 50.4774 88.4 50.3209 88.4 50.0078V48.9121V47.8229V47.3467C88.4 47.3467 88.4 47.1902 88.4 46.8771V45.7814V44.6922V44.2161C88.4 44.2161 88.4 44.0596 88.4 43.7465V42.6508V41.5616V41.0854H88.8696H89.9654H91.0546H91.5307C91.5307 41.0854 91.5307 41.2442 91.5307 41.5616V42.6508V43.7465V44.2161C91.5307 44.2161 91.372 44.2161 91.0546 44.2161H91.5307C91.5307 44.2161 91.5307 44.3748 91.5307 44.6922V45.7814V46.8771V47.3467C91.5307 47.3467 91.372 47.3467 91.0546 47.3467H91.5307C91.5307 47.3467 91.5307 47.5055 91.5307 47.8229V48.9121V50.0078V50.4774C91.5307 50.4774 91.372 50.4774 91.0546 50.4774H91.5307C91.5307 50.4774 91.5307 50.6361 91.5307 50.9535V52.0427V53.1385V53.608C91.5307 53.608 91.372 53.608 91.0546 53.608H91.5307C91.5307 53.608 91.5307 53.7668 91.5307 54.0842V55.1734V56.2691V56.7387C91.5307 56.7387 91.372 56.7387 91.0546 56.7387H91.5307C91.5307 56.7387 91.5307 56.8974 91.5307 57.2148V58.304V59.3998V59.8693C91.5307 59.8693 91.372 59.8693 91.0546 59.8693H91.5307C91.5307 59.8693 91.5307 60.0281 91.5307 60.3455V61.4347V62.5304V63C91.5307 63 91.372 63 91.0546 63H89.9654H88.8696H88.4ZM82.1387 41.0854C82.1387 41.0854 82.1387 40.9289 82.1387 40.6158V39.5201V38.4309V37.9548H82.6083H83.7041H84.7933H85.2694C85.2694 37.9548 85.2694 38.1135 85.2694 38.4309V37.9548H85.739H86.8347H87.9239H88.4C88.4 37.9548 88.4 38.1135 88.4 38.4309V39.5201V40.6158V41.0854C88.4 41.0854 88.2413 41.0854 87.9239 41.0854H86.8347H85.739H85.2694C85.2694 41.0854 85.2694 40.9289 85.2694 40.6158V41.0854C85.2694 41.0854 85.1107 41.0854 84.7933 41.0854H83.7041H82.6083H82.1387ZM101.852 63C101.355 63 101.107 62.8226 101.107 62.4678C101.107 62.0775 101.461 61.8291 102.171 61.7227L103.235 61.563C104.016 61.4566 104.548 61.2792 104.832 61.0308C105.151 60.747 105.382 60.2325 105.524 59.4874L112.762 28.1934C112.939 27.4483 112.939 26.9516 112.762 26.7032C112.585 26.4549 112.141 26.2597 111.431 26.1178L110.367 25.9049C109.906 25.7985 109.675 25.6033 109.675 25.3195C109.675 24.8937 109.994 24.6808 110.633 24.6808H120.106C120.603 24.6808 120.852 24.8582 120.852 25.213C120.852 25.6033 120.497 25.8517 119.787 25.9581L118.723 26.1178C117.942 26.2242 117.41 26.4194 117.126 26.7032C116.842 26.9516 116.612 27.4483 116.434 28.1934L109.196 59.4874C109.054 60.2325 109.054 60.7292 109.196 60.9776C109.374 61.226 109.817 61.4211 110.527 61.563L111.591 61.7759C112.052 61.8824 112.283 62.0775 112.283 62.3613C112.283 62.7871 111.964 63 111.325 63H101.852ZM118.926 63C118.926 63 118.926 62.8435 118.926 62.5304V61.4347V60.3455V59.8693C118.926 59.8693 118.926 59.7128 118.926 59.3998V58.304V57.2148V56.7387C118.926 56.7387 118.926 56.5822 118.926 56.2691V55.1734V54.0842V53.608C118.926 53.608 118.926 53.4515 118.926 53.1385V52.0427V50.9535V50.4774C118.926 50.4774 118.926 50.3209 118.926 50.0078V48.9121V47.8229V47.3467C118.926 47.3467 118.926 47.1902 118.926 46.8771V45.7814V44.6922V44.2161C118.926 44.2161 118.926 44.0596 118.926 43.7465V42.6508V41.5616V41.0854C118.926 41.0854 118.926 40.9289 118.926 40.6158V39.5201V38.4309V37.9548H119.396H120.492H121.581H122.057C122.057 37.9548 122.057 38.1135 122.057 38.4309V39.5201V40.6158V41.0854C122.057 41.0854 121.898 41.0854 121.581 41.0854H122.057C122.057 41.0854 122.057 41.2442 122.057 41.5616V41.0854H122.526H123.622H124.711H125.188C125.188 41.0854 125.188 41.2442 125.188 41.5616V42.6508V43.7465V44.2161C125.188 44.2161 125.029 44.2161 124.711 44.2161H123.622H122.526H122.057C122.057 44.2161 122.057 44.0596 122.057 43.7465V44.2161C122.057 44.2161 121.898 44.2161 121.581 44.2161H122.057C122.057 44.2161 122.057 44.3748 122.057 44.6922V45.7814V46.8771V47.3467C122.057 47.3467 121.898 47.3467 121.581 47.3467H122.057C122.057 47.3467 122.057 47.5055 122.057 47.8229V48.9121V50.0078V50.4774C122.057 50.4774 121.898 50.4774 121.581 50.4774H122.057C122.057 50.4774 122.057 50.6361 122.057 50.9535V52.0427V53.1385V53.608C122.057 53.608 121.898 53.608 121.581 53.608H122.057C122.057 53.608 122.057 53.7668 122.057 54.0842V55.1734V56.2691V56.7387C122.057 56.7387 121.898 56.7387 121.581 56.7387H122.057C122.057 56.7387 122.057 56.8974 122.057 57.2148V58.304V59.3998V59.8693C122.057 59.8693 121.898 59.8693 121.581 59.8693H122.057C122.057 59.8693 122.057 60.0281 122.057 60.3455V61.4347V62.5304V63C122.057 63 121.898 63 121.581 63H120.492H119.396H118.926ZM131.449 63C131.449 63 131.449 62.8435 131.449 62.5304V61.4347V60.3455V59.8693C131.449 59.8693 131.449 59.7128 131.449 59.3998V58.304V57.2148V56.7387C131.449 56.7387 131.449 56.5822 131.449 56.2691V55.1734V54.0842V53.608C131.449 53.608 131.449 53.4515 131.449 53.1385V52.0427V50.9535V50.4774C131.449 50.4774 131.449 50.3209 131.449 50.0078V48.9121V47.8229V47.3467C131.449 47.3467 131.449 47.1902 131.449 46.8771V45.7814V44.6922V44.2161C131.449 44.2161 131.449 44.0596 131.449 43.7465V42.6508V41.5616V41.0854H131.918H133.014H134.103H134.579C134.579 41.0854 134.579 41.2442 134.579 41.5616V42.6508V43.7465V44.2161C134.579 44.2161 134.421 44.2161 134.103 44.2161H134.579C134.579 44.2161 134.579 44.3748 134.579 44.6922V45.7814V46.8771V47.3467C134.579 47.3467 134.421 47.3467 134.103 47.3467H134.579C134.579 47.3467 134.579 47.5055 134.579 47.8229V48.9121V50.0078V50.4774C134.579 50.4774 134.421 50.4774 134.103 50.4774H134.579C134.579 50.4774 134.579 50.6361 134.579 50.9535V52.0427V53.1385V53.608C134.579 53.608 134.421 53.608 134.103 53.608H134.579C134.579 53.608 134.579 53.7668 134.579 54.0842V55.1734V56.2691V56.7387C134.579 56.7387 134.421 56.7387 134.103 56.7387H134.579C134.579 56.7387 134.579 56.8974 134.579 57.2148V58.304V59.3998V59.8693C134.579 59.8693 134.421 59.8693 134.103 59.8693H134.579C134.579 59.8693 134.579 60.0281 134.579 60.3455V61.4347V62.5304V63C134.579 63 134.421 63 134.103 63H133.014H131.918H131.449ZM125.188 41.0854C125.188 41.0854 125.188 40.9289 125.188 40.6158V39.5201V38.4309V37.9548H125.657H126.753H127.842H128.318C128.318 37.9548 128.318 38.1135 128.318 38.4309V37.9548H128.788H129.883H130.973H131.449C131.449 37.9548 131.449 38.1135 131.449 38.4309V39.5201V40.6158V41.0854C131.449 41.0854 131.29 41.0854 130.973 41.0854H129.883H128.788H128.318C128.318 41.0854 128.318 40.9289 128.318 40.6158V41.0854C128.318 41.0854 128.159 41.0854 127.842 41.0854H126.753H125.657H125.188ZM138.762 41.0854C138.762 41.0854 138.762 40.9289 138.762 40.6158V39.5201V38.4309V37.9548H139.231H140.327H141.416H141.892C141.892 37.9548 141.892 38.1135 141.892 38.4309V37.9548C141.892 37.9548 141.892 37.7983 141.892 37.4852V36.3895V35.3003V34.8241C141.892 34.8241 141.892 34.6676 141.892 34.3545V33.2588V32.1696V31.6935C141.892 31.6935 141.892 31.537 141.892 31.2239V30.1282V29.039V28.5628H142.362H143.458H144.547H145.023C145.023 28.5628 145.023 28.7216 145.023 29.039V30.1282V31.2239V31.6935C145.023 31.6935 144.864 31.6935 144.547 31.6935H145.023C145.023 31.6935 145.023 31.8522 145.023 32.1696V33.2588V34.3545V34.8241C145.023 34.8241 144.864 34.8241 144.547 34.8241H145.023C145.023 34.8241 145.023 34.9829 145.023 35.3003V36.3895V37.4852V37.9548C145.023 37.9548 144.864 37.9548 144.547 37.9548H145.023C145.023 37.9548 145.023 38.1135 145.023 38.4309V37.9548H145.492H146.588H147.677H148.154C148.154 37.9548 148.154 38.1135 148.154 38.4309V37.9548H148.623H149.719H150.808H151.284C151.284 37.9548 151.284 38.1135 151.284 38.4309V39.5201V40.6158V41.0854C151.284 41.0854 151.125 41.0854 150.808 41.0854H149.719H148.623H148.154C148.154 41.0854 148.154 40.9289 148.154 40.6158V41.0854C148.154 41.0854 147.995 41.0854 147.677 41.0854H146.588H145.492H145.023C145.023 41.0854 145.023 40.9289 145.023 40.6158V41.0854C145.023 41.0854 144.864 41.0854 144.547 41.0854H145.023C145.023 41.0854 145.023 41.2442 145.023 41.5616V42.6508V43.7465V44.2161C145.023 44.2161 144.864 44.2161 144.547 44.2161H145.023C145.023 44.2161 145.023 44.3748 145.023 44.6922V45.7814V46.8771V47.3467C145.023 47.3467 144.864 47.3467 144.547 47.3467H145.023C145.023 47.3467 145.023 47.5055 145.023 47.8229V48.9121V50.0078V50.4774C145.023 50.4774 144.864 50.4774 144.547 50.4774H145.023C145.023 50.4774 145.023 50.6361 145.023 50.9535V52.0427V53.1385V53.608C145.023 53.608 144.864 53.608 144.547 53.608H145.023C145.023 53.608 145.023 53.7668 145.023 54.0842V55.1734V56.2691V56.7387C145.023 56.7387 144.864 56.7387 144.547 56.7387H145.023C145.023 56.7387 145.023 56.8974 145.023 57.2148V58.304V59.3998V59.8693C145.023 59.8693 144.864 59.8693 144.547 59.8693H145.023C145.023 59.8693 145.023 60.0281 145.023 60.3455V61.4347V62.5304V63C145.023 63 144.864 63 144.547 63H143.458H142.362H141.892C141.892 63 141.892 62.8435 141.892 62.5304V61.4347V60.3455V59.8693C141.892 59.8693 141.892 59.7128 141.892 59.3998V58.304V57.2148V56.7387C141.892 56.7387 141.892 56.5822 141.892 56.2691V55.1734V54.0842V53.608C141.892 53.608 141.892 53.4515 141.892 53.1385V52.0427V50.9535V50.4774C141.892 50.4774 141.892 50.3209 141.892 50.0078V48.9121V47.8229V47.3467C141.892 47.3467 141.892 47.1902 141.892 46.8771V45.7814V44.6922V44.2161C141.892 44.2161 141.892 44.0596 141.892 43.7465V42.6508V41.5616V41.0854C141.892 41.0854 141.892 40.9289 141.892 40.6158V41.0854C141.892 41.0854 141.734 41.0854 141.416 41.0854H140.327H139.231H138.762ZM145.023 28.5628C145.023 28.5628 145.023 28.4063 145.023 28.0932V26.9975V25.9083V25.4322H145.492H146.588H147.677H148.154C148.154 25.4322 148.154 25.5909 148.154 25.9083V25.4322H148.623H149.719H150.808H151.284C151.284 25.4322 151.284 25.5909 151.284 25.9083V25.4322H151.754H152.849H153.939H154.415C154.415 25.4322 154.415 25.5909 154.415 25.9083V26.9975V28.0932V28.5628C154.415 28.5628 154.256 28.5628 153.939 28.5628H152.849H151.754H151.284C151.284 28.5628 151.284 28.4063 151.284 28.0932V28.5628C151.284 28.5628 151.125 28.5628 150.808 28.5628H149.719H148.623H148.154C148.154 28.5628 148.154 28.4063 148.154 28.0932V28.5628C148.154 28.5628 147.995 28.5628 147.677 28.5628H146.588H145.492H145.023ZM157.01 63C157.01 63 157.01 62.8435 157.01 62.5304V61.4347V60.3455V59.8693H157.48H158.576H159.665H160.141C160.141 59.8693 160.141 60.0281 160.141 60.3455V59.8693H160.61H161.706H162.795H163.272C163.272 59.8693 163.272 60.0281 163.272 60.3455V59.8693H163.741H164.837H165.926H166.402C166.402 59.8693 166.402 60.0281 166.402 60.3455V61.4347V62.5304V63C166.402 63 166.243 63 165.926 63H164.837H163.741H163.272C163.272 63 163.272 62.8435 163.272 62.5304V63C163.272 63 163.113 63 162.795 63H161.706H160.61H160.141C160.141 63 160.141 62.8435 160.141 62.5304V63C160.141 63 159.982 63 159.665 63H158.576H157.48H157.01ZM153.88 59.8693C153.88 59.8693 153.88 59.7128 153.88 59.3998V58.304V57.2148V56.7387C153.88 56.7387 153.88 56.5822 153.88 56.2691V55.1734V54.0842V53.608C153.88 53.608 153.88 53.4515 153.88 53.1385V52.0427V50.9535V50.4774C153.88 50.4774 153.88 50.3209 153.88 50.0078V48.9121V47.8229V47.3467C153.88 47.3467 153.88 47.1902 153.88 46.8771V45.7814V44.6922V44.2161C153.88 44.2161 153.88 44.0596 153.88 43.7465V42.6508V41.5616V41.0854H154.349H155.445H156.534H157.01C157.01 41.0854 157.01 41.2442 157.01 41.5616V42.6508V43.7465V44.2161C157.01 44.2161 156.851 44.2161 156.534 44.2161H157.01C157.01 44.2161 157.01 44.3748 157.01 44.6922V45.7814V46.8771V47.3467C157.01 47.3467 156.851 47.3467 156.534 47.3467H157.01C157.01 47.3467 157.01 47.5055 157.01 47.8229V48.9121V50.0078V50.4774C157.01 50.4774 156.851 50.4774 156.534 50.4774H157.01C157.01 50.4774 157.01 50.6361 157.01 50.9535V52.0427V53.1385V53.608C157.01 53.608 156.851 53.608 156.534 53.608H157.01C157.01 53.608 157.01 53.7668 157.01 54.0842V55.1734V56.2691V56.7387C157.01 56.7387 156.851 56.7387 156.534 56.7387H157.01C157.01 56.7387 157.01 56.8974 157.01 57.2148V58.304V59.3998V59.8693C157.01 59.8693 156.851 59.8693 156.534 59.8693H155.445H154.349H153.88ZM166.402 59.8693C166.402 59.8693 166.402 59.7128 166.402 59.3998V58.304V57.2148V56.7387C166.402 56.7387 166.402 56.5822 166.402 56.2691V55.1734V54.0842V53.608C166.402 53.608 166.402 53.4515 166.402 53.1385V52.0427V50.9535V50.4774C166.402 50.4774 166.402 50.3209 166.402 50.0078V48.9121V47.8229V47.3467C166.402 47.3467 166.402 47.1902 166.402 46.8771V45.7814V44.6922V44.2161C166.402 44.2161 166.402 44.0596 166.402 43.7465V42.6508V41.5616V41.0854H166.872H167.967H169.057H169.533C169.533 41.0854 169.533 41.2442 169.533 41.5616V42.6508V43.7465V44.2161C169.533 44.2161 169.374 44.2161 169.057 44.2161H169.533C169.533 44.2161 169.533 44.3748 169.533 44.6922V45.7814V46.8771V47.3467C169.533 47.3467 169.374 47.3467 169.057 47.3467H169.533C169.533 47.3467 169.533 47.5055 169.533 47.8229V48.9121V50.0078V50.4774C169.533 50.4774 169.374 50.4774 169.057 50.4774H169.533C169.533 50.4774 169.533 50.6361 169.533 50.9535V52.0427V53.1385V53.608C169.533 53.608 169.374 53.608 169.057 53.608H169.533C169.533 53.608 169.533 53.7668 169.533 54.0842V55.1734V56.2691V56.7387C169.533 56.7387 169.374 56.7387 169.057 56.7387H169.533C169.533 56.7387 169.533 56.8974 169.533 57.2148V58.304V59.3998V59.8693C169.533 59.8693 169.374 59.8693 169.057 59.8693H167.967H166.872H166.402ZM157.01 41.0854C157.01 41.0854 157.01 40.9289 157.01 40.6158V39.5201V38.4309V37.9548H157.48H158.576H159.665H160.141C160.141 37.9548 160.141 38.1135 160.141 38.4309V37.9548H160.61H161.706H162.795H163.272C163.272 37.9548 163.272 38.1135 163.272 38.4309V37.9548H163.741H164.837H165.926H166.402C166.402 37.9548 166.402 38.1135 166.402 38.4309V39.5201V40.6158V41.0854C166.402 41.0854 166.243 41.0854 165.926 41.0854H164.837H163.741H163.272C163.272 41.0854 163.272 40.9289 163.272 40.6158V41.0854C163.272 41.0854 163.113 41.0854 162.795 41.0854H161.706H160.61H160.141C160.141 41.0854 160.141 40.9289 160.141 40.6158V41.0854C160.141 41.0854 159.982 41.0854 159.665 41.0854H158.576H157.48H157.01ZM175.28 63C175.28 63 175.28 62.8435 175.28 62.5304V61.4347V60.3455V59.8693C175.28 59.8693 175.28 59.7128 175.28 59.3998V58.304V57.2148V56.7387C175.28 56.7387 175.28 56.5822 175.28 56.2691V55.1734V54.0842V53.608C175.28 53.608 175.28 53.4515 175.28 53.1385V52.0427V50.9535V50.4774C175.28 50.4774 175.28 50.3209 175.28 50.0078V48.9121V47.8229V47.3467C175.28 47.3467 175.28 47.1902 175.28 46.8771V45.7814V44.6922V44.2161C175.28 44.2161 175.28 44.0596 175.28 43.7465V42.6508V41.5616V41.0854H175.75H176.846H177.935H178.411C178.411 41.0854 178.411 41.2442 178.411 41.5616V42.6508V43.7465V44.2161C178.411 44.2161 178.252 44.2161 177.935 44.2161H178.411C178.411 44.2161 178.411 44.3748 178.411 44.6922V45.7814V46.8771V47.3467C178.411 47.3467 178.252 47.3467 177.935 47.3467H178.411C178.411 47.3467 178.411 47.5055 178.411 47.8229V48.9121V50.0078V50.4774C178.411 50.4774 178.252 50.4774 177.935 50.4774H178.411C178.411 50.4774 178.411 50.6361 178.411 50.9535V52.0427V53.1385V53.608C178.411 53.608 178.252 53.608 177.935 53.608H178.411C178.411 53.608 178.411 53.7668 178.411 54.0842V55.1734V56.2691V56.7387C178.411 56.7387 178.252 56.7387 177.935 56.7387H178.411C178.411 56.7387 178.411 56.8974 178.411 57.2148V58.304V59.3998V59.8693C178.411 59.8693 178.252 59.8693 177.935 59.8693H178.411C178.411 59.8693 178.411 60.0281 178.411 60.3455V61.4347V62.5304V63C178.411 63 178.252 63 177.935 63H176.846H175.75H175.28ZM184.672 47.3467C184.672 47.3467 184.672 47.1902 184.672 46.8771V45.7814V44.6922V44.2161C184.672 44.2161 184.672 44.0596 184.672 43.7465V42.6508V41.5616V41.0854H185.142H186.238H187.327H187.803C187.803 41.0854 187.803 41.2442 187.803 41.5616V42.6508V43.7465V44.2161C187.803 44.2161 187.644 44.2161 187.327 44.2161H187.803C187.803 44.2161 187.803 44.3748 187.803 44.6922V45.7814V46.8771V47.3467C187.803 47.3467 187.644 47.3467 187.327 47.3467H186.238H185.142H184.672ZM178.411 41.0854C178.411 41.0854 178.411 40.9289 178.411 40.6158V39.5201V38.4309V37.9548H178.88H179.976H181.065H181.542C181.542 37.9548 181.542 38.1135 181.542 38.4309V37.9548H182.011H183.107H184.196H184.672C184.672 37.9548 184.672 38.1135 184.672 38.4309V39.5201V40.6158V41.0854C184.672 41.0854 184.513 41.0854 184.196 41.0854H183.107H182.011H181.542C181.542 41.0854 181.542 40.9289 181.542 40.6158V41.0854C181.542 41.0854 181.383 41.0854 181.065 41.0854H179.976H178.88H178.411ZM191.951 63C191.951 63 191.951 62.8435 191.951 62.5304V61.4347V60.3455V59.8693C191.951 59.8693 191.951 59.7128 191.951 59.3998V58.304V57.2148V56.7387C191.951 56.7387 191.951 56.5822 191.951 56.2691V55.1734V54.0842V53.608C191.951 53.608 191.951 53.4515 191.951 53.1385V52.0427V50.9535V50.4774C191.951 50.4774 191.951 50.3209 191.951 50.0078V48.9121V47.8229V47.3467C191.951 47.3467 191.951 47.1902 191.951 46.8771V45.7814V44.6922V44.2161C191.951 44.2161 191.951 44.0596 191.951 43.7465V42.6508V41.5616V41.0854C191.951 41.0854 191.951 40.9289 191.951 40.6158V39.5201V38.4309V37.9548H192.421H193.517H194.606H195.082C195.082 37.9548 195.082 38.1135 195.082 38.4309V39.5201V40.6158V41.0854C195.082 41.0854 194.923 41.0854 194.606 41.0854H195.082C195.082 41.0854 195.082 41.2442 195.082 41.5616V41.0854H195.552H196.647H197.736H198.213C198.213 41.0854 198.213 41.2442 198.213 41.5616V42.6508V43.7465V44.2161C198.213 44.2161 198.054 44.2161 197.736 44.2161H196.647H195.552H195.082C195.082 44.2161 195.082 44.0596 195.082 43.7465V44.2161C195.082 44.2161 194.923 44.2161 194.606 44.2161H195.082C195.082 44.2161 195.082 44.3748 195.082 44.6922V45.7814V46.8771V47.3467C195.082 47.3467 194.923 47.3467 194.606 47.3467H195.082C195.082 47.3467 195.082 47.5055 195.082 47.8229V48.9121V50.0078V50.4774C195.082 50.4774 194.923 50.4774 194.606 50.4774H195.082C195.082 50.4774 195.082 50.6361 195.082 50.9535V52.0427V53.1385V53.608C195.082 53.608 194.923 53.608 194.606 53.608H195.082C195.082 53.608 195.082 53.7668 195.082 54.0842V55.1734V56.2691V56.7387C195.082 56.7387 194.923 56.7387 194.606 56.7387H195.082C195.082 56.7387 195.082 56.8974 195.082 57.2148V58.304V59.3998V59.8693C195.082 59.8693 194.923 59.8693 194.606 59.8693H195.082C195.082 59.8693 195.082 60.0281 195.082 60.3455V61.4347V62.5304V63C195.082 63 194.923 63 194.606 63H193.517H192.421H191.951ZM204.474 63C204.474 63 204.474 62.8435 204.474 62.5304V61.4347V60.3455V59.8693C204.474 59.8693 204.474 59.7128 204.474 59.3998V58.304V57.2148V56.7387C204.474 56.7387 204.474 56.5822 204.474 56.2691V55.1734V54.0842V53.608C204.474 53.608 204.474 53.4515 204.474 53.1385V52.0427V50.9535V50.4774C204.474 50.4774 204.474 50.3209 204.474 50.0078V48.9121V47.8229V47.3467C204.474 47.3467 204.474 47.1902 204.474 46.8771V45.7814V44.6922V44.2161C204.474 44.2161 204.474 44.0596 204.474 43.7465V42.6508V41.5616V41.0854H204.944H206.039H207.128H207.605C207.605 41.0854 207.605 41.2442 207.605 41.5616V41.0854H208.074H209.17H210.259H210.735C210.735 41.0854 210.735 41.2442 210.735 41.5616V42.6508V43.7465V44.2161C210.735 44.2161 210.577 44.2161 210.259 44.2161H209.17H208.074H207.605C207.605 44.2161 207.605 44.0596 207.605 43.7465V44.2161C207.605 44.2161 207.446 44.2161 207.128 44.2161H207.605C207.605 44.2161 207.605 44.3748 207.605 44.6922V45.7814V46.8771V47.3467C207.605 47.3467 207.446 47.3467 207.128 47.3467H207.605C207.605 47.3467 207.605 47.5055 207.605 47.8229V48.9121V50.0078V50.4774C207.605 50.4774 207.446 50.4774 207.128 50.4774H207.605C207.605 50.4774 207.605 50.6361 207.605 50.9535V52.0427V53.1385V53.608C207.605 53.608 207.446 53.608 207.128 53.608H207.605C207.605 53.608 207.605 53.7668 207.605 54.0842V55.1734V56.2691V56.7387C207.605 56.7387 207.446 56.7387 207.128 56.7387H207.605C207.605 56.7387 207.605 56.8974 207.605 57.2148V58.304V59.3998V59.8693C207.605 59.8693 207.446 59.8693 207.128 59.8693H207.605C207.605 59.8693 207.605 60.0281 207.605 60.3455V61.4347V62.5304V63C207.605 63 207.446 63 207.128 63H206.039H204.944H204.474ZM216.997 63C216.997 63 216.997 62.8435 216.997 62.5304V61.4347V60.3455V59.8693C216.997 59.8693 216.997 59.7128 216.997 59.3998V58.304V57.2148V56.7387C216.997 56.7387 216.997 56.5822 216.997 56.2691V55.1734V54.0842V53.608C216.997 53.608 216.997 53.4515 216.997 53.1385V52.0427V50.9535V50.4774C216.997 50.4774 216.997 50.3209 216.997 50.0078V48.9121V47.8229V47.3467C216.997 47.3467 216.997 47.1902 216.997 46.8771V45.7814V44.6922V44.2161C216.997 44.2161 216.997 44.0596 216.997 43.7465V42.6508V41.5616V41.0854H217.466H218.562H219.651H220.127C220.127 41.0854 220.127 41.2442 220.127 41.5616V42.6508V43.7465V44.2161C220.127 44.2161 219.968 44.2161 219.651 44.2161H220.127C220.127 44.2161 220.127 44.3748 220.127 44.6922V45.7814V46.8771V47.3467C220.127 47.3467 219.968 47.3467 219.651 47.3467H220.127C220.127 47.3467 220.127 47.5055 220.127 47.8229V48.9121V50.0078V50.4774C220.127 50.4774 219.968 50.4774 219.651 50.4774H220.127C220.127 50.4774 220.127 50.6361 220.127 50.9535V52.0427V53.1385V53.608C220.127 53.608 219.968 53.608 219.651 53.608H220.127C220.127 53.608 220.127 53.7668 220.127 54.0842V55.1734V56.2691V56.7387C220.127 56.7387 219.968 56.7387 219.651 56.7387H220.127C220.127 56.7387 220.127 56.8974 220.127 57.2148V58.304V59.3998V59.8693C220.127 59.8693 219.968 59.8693 219.651 59.8693H220.127C220.127 59.8693 220.127 60.0281 220.127 60.3455V61.4347V62.5304V63C220.127 63 219.968 63 219.651 63H218.562H217.466H216.997ZM198.213 41.0854C198.213 41.0854 198.213 40.9289 198.213 40.6158V39.5201V38.4309V37.9548H198.682H199.778H200.867H201.343C201.343 37.9548 201.343 38.1135 201.343 38.4309V37.9548H201.813H202.909H203.998H204.474C204.474 37.9548 204.474 38.1135 204.474 38.4309V39.5201V40.6158V41.0854C204.474 41.0854 204.315 41.0854 203.998 41.0854H202.909H201.813H201.343C201.343 41.0854 201.343 40.9289 201.343 40.6158V41.0854C201.343 41.0854 201.185 41.0854 200.867 41.0854H199.778H198.682H198.213ZM210.735 41.0854C210.735 41.0854 210.735 40.9289 210.735 40.6158V39.5201V38.4309V37.9548H211.205H212.301H213.39H213.866C213.866 37.9548 213.866 38.1135 213.866 38.4309V37.9548H214.335H215.431H216.52H216.997C216.997 37.9548 216.997 38.1135 216.997 38.4309V39.5201V40.6158V41.0854C216.997 41.0854 216.838 41.0854 216.52 41.0854H215.431H214.335H213.866C213.866 41.0854 213.866 40.9289 213.866 40.6158V41.0854C213.866 41.0854 213.707 41.0854 213.39 41.0854H212.301H211.205H210.735ZM227.443 63C227.443 63 227.443 62.8435 227.443 62.5304V61.4347V60.3455V59.8693H227.913H229.008H230.098H230.574C230.574 59.8693 230.574 60.0281 230.574 60.3455V59.8693H231.043H232.139H233.228H233.704C233.704 59.8693 233.704 60.0281 233.704 60.3455V61.4347V62.5304V63C233.704 63 233.546 63 233.228 63H232.139H231.043H230.574C230.574 63 230.574 62.8435 230.574 62.5304V63C230.574 63 230.415 63 230.098 63H229.008H227.913H227.443ZM224.312 59.8693C224.312 59.8693 224.312 59.7128 224.312 59.3998V58.304V57.2148V56.7387C224.312 56.7387 224.312 56.5822 224.312 56.2691V55.1734V54.0842V53.608H224.782H225.878H226.967H227.443C227.443 53.608 227.443 53.7668 227.443 54.0842V55.1734V56.2691V56.7387C227.443 56.7387 227.284 56.7387 226.967 56.7387H227.443C227.443 56.7387 227.443 56.8974 227.443 57.2148V58.304V59.3998V59.8693C227.443 59.8693 227.284 59.8693 226.967 59.8693H225.878H224.782H224.312ZM227.443 53.608C227.443 53.608 227.443 53.4515 227.443 53.1385V52.0427V50.9535V50.4774H227.913H229.008H230.098H230.574C230.574 50.4774 230.574 50.6361 230.574 50.9535V50.4774H231.043H232.139H233.228H233.704C233.704 50.4774 233.704 50.6361 233.704 50.9535V50.4774H234.174H235.27H236.359H236.835C236.835 50.4774 236.835 50.6361 236.835 50.9535V50.4774C236.835 50.4774 236.835 50.3209 236.835 50.0078V48.9121V47.8229V47.3467C236.835 47.3467 236.835 47.1902 236.835 46.8771V45.7814V44.6922V44.2161C236.835 44.2161 236.835 44.0596 236.835 43.7465V42.6508V41.5616V41.0854H237.305H238.4H239.489H239.966C239.966 41.0854 239.966 41.2442 239.966 41.5616V42.6508V43.7465V44.2161C239.966 44.2161 239.807 44.2161 239.489 44.2161H239.966C239.966 44.2161 239.966 44.3748 239.966 44.6922V45.7814V46.8771V47.3467C239.966 47.3467 239.807 47.3467 239.489 47.3467H239.966C239.966 47.3467 239.966 47.5055 239.966 47.8229V48.9121V50.0078V50.4774C239.966 50.4774 239.807 50.4774 239.489 50.4774H239.966C239.966 50.4774 239.966 50.6361 239.966 50.9535V52.0427V53.1385V53.608C239.966 53.608 239.807 53.608 239.489 53.608H239.966C239.966 53.608 239.966 53.7668 239.966 54.0842V55.1734V56.2691V56.7387C239.966 56.7387 239.807 56.7387 239.489 56.7387H239.966C239.966 56.7387 239.966 56.8974 239.966 57.2148V58.304V59.3998V59.8693C239.966 59.8693 239.807 59.8693 239.489 59.8693H239.966C239.966 59.8693 239.966 60.0281 239.966 60.3455V61.4347V62.5304V63C239.966 63 239.807 63 239.489 63H238.4H237.305H236.835C236.835 63 236.835 62.8435 236.835 62.5304V61.4347V60.3455V59.8693C236.835 59.8693 236.835 59.7128 236.835 59.3998V59.8693C236.835 59.8693 236.676 59.8693 236.359 59.8693H235.27H234.174H233.704C233.704 59.8693 233.704 59.7128 233.704 59.3998V58.304V57.2148V56.7387H234.174H235.27H236.359H236.835C236.835 56.7387 236.835 56.8974 236.835 57.2148V56.7387C236.835 56.7387 236.835 56.5822 236.835 56.2691V55.1734V54.0842V53.608C236.835 53.608 236.835 53.4515 236.835 53.1385V53.608C236.835 53.608 236.676 53.608 236.359 53.608H235.27H234.174H233.704C233.704 53.608 233.704 53.4515 233.704 53.1385V53.608C233.704 53.608 233.546 53.608 233.228 53.608H232.139H231.043H230.574C230.574 53.608 230.574 53.4515 230.574 53.1385V53.608C230.574 53.608 230.415 53.608 230.098 53.608H229.008H227.913H227.443ZM224.312 44.2161C224.312 44.2161 224.312 44.0596 224.312 43.7465V42.6508V41.5616V41.0854H224.782H225.878H226.967H227.443C227.443 41.0854 227.443 41.2442 227.443 41.5616V42.6508V43.7465V44.2161C227.443 44.2161 227.284 44.2161 226.967 44.2161H225.878H224.782H224.312ZM227.443 41.0854C227.443 41.0854 227.443 40.9289 227.443 40.6158V39.5201V38.4309V37.9548H227.913H229.008H230.098H230.574C230.574 37.9548 230.574 38.1135 230.574 38.4309V37.9548H231.043H232.139H233.228H233.704C233.704 37.9548 233.704 38.1135 233.704 38.4309V37.9548H234.174H235.27H236.359H236.835C236.835 37.9548 236.835 38.1135 236.835 38.4309V39.5201V40.6158V41.0854C236.835 41.0854 236.676 41.0854 236.359 41.0854H235.27H234.174H233.704C233.704 41.0854 233.704 40.9289 233.704 40.6158V41.0854C233.704 41.0854 233.546 41.0854 233.228 41.0854H232.139H231.043H230.574C230.574 41.0854 230.574 40.9289 230.574 40.6158V41.0854C230.574 41.0854 230.415 41.0854 230.098 41.0854H229.008H227.913H227.443ZM250.415 63C250.415 63 250.415 62.8435 250.415 62.5304V61.4347V60.3455V59.8693H250.885H251.98H253.07H253.546C253.546 59.8693 253.546 60.0281 253.546 60.3455V59.8693H254.015H255.111H256.2H256.676C256.676 59.8693 256.676 60.0281 256.676 60.3455V61.4347V62.5304V63C256.676 63 256.518 63 256.2 63H255.111H254.015H253.546C253.546 63 253.546 62.8435 253.546 62.5304V63C253.546 63 253.387 63 253.07 63H251.98H250.885H250.415ZM244.154 41.0854C244.154 41.0854 244.154 40.9289 244.154 40.6158V39.5201V38.4309V37.9548H244.623H245.719H246.808H247.284C247.284 37.9548 247.284 38.1135 247.284 38.4309V37.9548C247.284 37.9548 247.284 37.7983 247.284 37.4852V36.3895V35.3003V34.8241C247.284 34.8241 247.284 34.6676 247.284 34.3545V33.2588V32.1696V31.6935H247.754H248.85H249.939H250.415C250.415 31.6935 250.415 31.8522 250.415 32.1696V33.2588V34.3545V34.8241C250.415 34.8241 250.256 34.8241 249.939 34.8241H250.415C250.415 34.8241 250.415 34.9829 250.415 35.3003V36.3895V37.4852V37.9548C250.415 37.9548 250.256 37.9548 249.939 37.9548H250.415C250.415 37.9548 250.415 38.1135 250.415 38.4309V37.9548H250.885H251.98H253.07H253.546C253.546 37.9548 253.546 38.1135 253.546 38.4309V37.9548H254.015H255.111H256.2H256.676C256.676 37.9548 256.676 38.1135 256.676 38.4309V39.5201V40.6158V41.0854C256.676 41.0854 256.518 41.0854 256.2 41.0854H255.111H254.015H253.546C253.546 41.0854 253.546 40.9289 253.546 40.6158V41.0854C253.546 41.0854 253.387 41.0854 253.07 41.0854H251.98H250.885H250.415C250.415 41.0854 250.415 40.9289 250.415 40.6158V41.0854C250.415 41.0854 250.256 41.0854 249.939 41.0854H250.415C250.415 41.0854 250.415 41.2442 250.415 41.5616V42.6508V43.7465V44.2161C250.415 44.2161 250.256 44.2161 249.939 44.2161H250.415C250.415 44.2161 250.415 44.3748 250.415 44.6922V45.7814V46.8771V47.3467C250.415 47.3467 250.256 47.3467 249.939 47.3467H250.415C250.415 47.3467 250.415 47.5055 250.415 47.8229V48.9121V50.0078V50.4774C250.415 50.4774 250.256 50.4774 249.939 50.4774H250.415C250.415 50.4774 250.415 50.6361 250.415 50.9535V52.0427V53.1385V53.608C250.415 53.608 250.256 53.608 249.939 53.608H250.415C250.415 53.608 250.415 53.7668 250.415 54.0842V55.1734V56.2691V56.7387C250.415 56.7387 250.256 56.7387 249.939 56.7387H250.415C250.415 56.7387 250.415 56.8974 250.415 57.2148V58.304V59.3998V59.8693C250.415 59.8693 250.256 59.8693 249.939 59.8693H248.85H247.754H247.284C247.284 59.8693 247.284 59.7128 247.284 59.3998V58.304V57.2148V56.7387C247.284 56.7387 247.284 56.5822 247.284 56.2691V55.1734V54.0842V53.608C247.284 53.608 247.284 53.4515 247.284 53.1385V52.0427V50.9535V50.4774C247.284 50.4774 247.284 50.3209 247.284 50.0078V48.9121V47.8229V47.3467C247.284 47.3467 247.284 47.1902 247.284 46.8771V45.7814V44.6922V44.2161C247.284 44.2161 247.284 44.0596 247.284 43.7465V42.6508V41.5616V41.0854C247.284 41.0854 247.284 40.9289 247.284 40.6158V41.0854C247.284 41.0854 247.126 41.0854 246.808 41.0854H245.719H244.623H244.154ZM260.831 63C260.831 63 260.831 62.8435 260.831 62.5304V61.4347V60.3455V59.8693C260.831 59.8693 260.831 59.7128 260.831 59.3998V58.304V57.2148V56.7387C260.831 56.7387 260.831 56.5822 260.831 56.2691V55.1734V54.0842V53.608C260.831 53.608 260.831 53.4515 260.831 53.1385V52.0427V50.9535V50.4774C260.831 50.4774 260.831 50.3209 260.831 50.0078V48.9121V47.8229V47.3467C260.831 47.3467 260.831 47.1902 260.831 46.8771V45.7814V44.6922V44.2161C260.831 44.2161 260.831 44.0596 260.831 43.7465V42.6508V41.5616V41.0854C260.831 41.0854 260.831 40.9289 260.831 40.6158V39.5201V38.4309V37.9548H261.301H262.396H263.486H263.962C263.962 37.9548 263.962 38.1135 263.962 38.4309V39.5201V40.6158V41.0854C263.962 41.0854 263.803 41.0854 263.486 41.0854H263.962C263.962 41.0854 263.962 41.2442 263.962 41.5616V42.6508V43.7465V44.2161C263.962 44.2161 263.803 44.2161 263.486 44.2161H263.962C263.962 44.2161 263.962 44.3748 263.962 44.6922V45.7814V46.8771V47.3467C263.962 47.3467 263.803 47.3467 263.486 47.3467H263.962C263.962 47.3467 263.962 47.5055 263.962 47.8229V48.9121V50.0078V50.4774C263.962 50.4774 263.803 50.4774 263.486 50.4774H263.962C263.962 50.4774 263.962 50.6361 263.962 50.9535V52.0427V53.1385V53.608C263.962 53.608 263.803 53.608 263.486 53.608H263.962C263.962 53.608 263.962 53.7668 263.962 54.0842V55.1734V56.2691V56.7387C263.962 56.7387 263.803 56.7387 263.486 56.7387H263.962C263.962 56.7387 263.962 56.8974 263.962 57.2148V58.304V59.3998V59.8693C263.962 59.8693 263.803 59.8693 263.486 59.8693H263.962C263.962 59.8693 263.962 60.0281 263.962 60.3455V61.4347V62.5304V63C263.962 63 263.803 63 263.486 63H262.396H261.301H260.831ZM260.831 34.8241C260.831 34.8241 260.831 34.6676 260.831 34.3545V33.2588V32.1696V31.6935C260.831 31.6935 260.831 31.537 260.831 31.2239V30.1282V29.039V28.5628H261.301H262.396H263.486H263.962C263.962 28.5628 263.962 28.7216 263.962 29.039V30.1282V31.2239V31.6935C263.962 31.6935 263.803 31.6935 263.486 31.6935H263.962C263.962 31.6935 263.962 31.8522 263.962 32.1696V33.2588V34.3545V34.8241C263.962 34.8241 263.803 34.8241 263.486 34.8241H262.396H261.301H260.831ZM272.837 63C272.837 63 272.837 62.8435 272.837 62.5304V61.4347V60.3455V59.8693H273.306H274.402H275.491H275.967C275.967 59.8693 275.967 60.0281 275.967 60.3455V59.8693H276.437H277.533H278.622H279.098C279.098 59.8693 279.098 60.0281 279.098 60.3455V59.8693H279.568H280.663H281.753H282.229C282.229 59.8693 282.229 60.0281 282.229 60.3455V61.4347V62.5304V63C282.229 63 282.07 63 281.753 63H280.663H279.568H279.098C279.098 63 279.098 62.8435 279.098 62.5304V63C279.098 63 278.939 63 278.622 63H277.533H276.437H275.967C275.967 63 275.967 62.8435 275.967 62.5304V63C275.967 63 275.809 63 275.491 63H274.402H273.306H272.837ZM269.706 59.8693C269.706 59.8693 269.706 59.7128 269.706 59.3998V58.304V57.2148V56.7387C269.706 56.7387 269.706 56.5822 269.706 56.2691V55.1734V54.0842V53.608C269.706 53.608 269.706 53.4515 269.706 53.1385V52.0427V50.9535V50.4774C269.706 50.4774 269.706 50.3209 269.706 50.0078V48.9121V47.8229V47.3467C269.706 47.3467 269.706 47.1902 269.706 46.8771V45.7814V44.6922V44.2161C269.706 44.2161 269.706 44.0596 269.706 43.7465V42.6508V41.5616V41.0854H270.176H271.271H272.361H272.837C272.837 41.0854 272.837 41.2442 272.837 41.5616V42.6508V43.7465V44.2161C272.837 44.2161 272.678 44.2161 272.361 44.2161H272.837C272.837 44.2161 272.837 44.3748 272.837 44.6922V45.7814V46.8771V47.3467C272.837 47.3467 272.678 47.3467 272.361 47.3467H272.837C272.837 47.3467 272.837 47.5055 272.837 47.8229V48.9121V50.0078V50.4774C272.837 50.4774 272.678 50.4774 272.361 50.4774H272.837C272.837 50.4774 272.837 50.6361 272.837 50.9535V52.0427V53.1385V53.608C272.837 53.608 272.678 53.608 272.361 53.608H272.837C272.837 53.608 272.837 53.7668 272.837 54.0842V55.1734V56.2691V56.7387C272.837 56.7387 272.678 56.7387 272.361 56.7387H272.837C272.837 56.7387 272.837 56.8974 272.837 57.2148V58.304V59.3998V59.8693C272.837 59.8693 272.678 59.8693 272.361 59.8693H271.271H270.176H269.706ZM282.229 59.8693C282.229 59.8693 282.229 59.7128 282.229 59.3998V58.304V57.2148V56.7387C282.229 56.7387 282.229 56.5822 282.229 56.2691V55.1734V54.0842V53.608C282.229 53.608 282.229 53.4515 282.229 53.1385V52.0427V50.9535V50.4774C282.229 50.4774 282.229 50.3209 282.229 50.0078V48.9121V47.8229V47.3467C282.229 47.3467 282.229 47.1902 282.229 46.8771V45.7814V44.6922V44.2161C282.229 44.2161 282.229 44.0596 282.229 43.7465V42.6508V41.5616V41.0854H282.698H283.794H284.883H285.359C285.359 41.0854 285.359 41.2442 285.359 41.5616V42.6508V43.7465V44.2161C285.359 44.2161 285.201 44.2161 284.883 44.2161H285.359C285.359 44.2161 285.359 44.3748 285.359 44.6922V45.7814V46.8771V47.3467C285.359 47.3467 285.201 47.3467 284.883 47.3467H285.359C285.359 47.3467 285.359 47.5055 285.359 47.8229V48.9121V50.0078V50.4774C285.359 50.4774 285.201 50.4774 284.883 50.4774H285.359C285.359 50.4774 285.359 50.6361 285.359 50.9535V52.0427V53.1385V53.608C285.359 53.608 285.201 53.608 284.883 53.608H285.359C285.359 53.608 285.359 53.7668 285.359 54.0842V55.1734V56.2691V56.7387C285.359 56.7387 285.201 56.7387 284.883 56.7387H285.359C285.359 56.7387 285.359 56.8974 285.359 57.2148V58.304V59.3998V59.8693C285.359 59.8693 285.201 59.8693 284.883 59.8693H283.794H282.698H282.229ZM272.837 41.0854C272.837 41.0854 272.837 40.9289 272.837 40.6158V39.5201V38.4309V37.9548H273.306H274.402H275.491H275.967C275.967 37.9548 275.967 38.1135 275.967 38.4309V37.9548H276.437H277.533H278.622H279.098C279.098 37.9548 279.098 38.1135 279.098 38.4309V37.9548H279.568H280.663H281.753H282.229C282.229 37.9548 282.229 38.1135 282.229 38.4309V39.5201V40.6158V41.0854C282.229 41.0854 282.07 41.0854 281.753 41.0854H280.663H279.568H279.098C279.098 41.0854 279.098 40.9289 279.098 40.6158V41.0854C279.098 41.0854 278.939 41.0854 278.622 41.0854H277.533H276.437H275.967C275.967 41.0854 275.967 40.9289 275.967 40.6158V41.0854C275.967 41.0854 275.809 41.0854 275.491 41.0854H274.402H273.306H272.837ZM291.107 63C291.107 63 291.107 62.8435 291.107 62.5304V61.4347V60.3455V59.8693C291.107 59.8693 291.107 59.7128 291.107 59.3998V58.304V57.2148V56.7387C291.107 56.7387 291.107 56.5822 291.107 56.2691V55.1734V54.0842V53.608C291.107 53.608 291.107 53.4515 291.107 53.1385V52.0427V50.9535V50.4774C291.107 50.4774 291.107 50.3209 291.107 50.0078V48.9121V47.8229V47.3467C291.107 47.3467 291.107 47.1902 291.107 46.8771V45.7814V44.6922V44.2161C291.107 44.2161 291.107 44.0596 291.107 43.7465V42.6508V41.5616V41.0854C291.107 41.0854 291.107 40.9289 291.107 40.6158V39.5201V38.4309V37.9548H291.576H292.672H293.761H294.237C294.237 37.9548 294.237 38.1135 294.237 38.4309V39.5201V40.6158V41.0854C294.237 41.0854 294.079 41.0854 293.761 41.0854H294.237C294.237 41.0854 294.237 41.2442 294.237 41.5616V41.0854H294.707H295.803H296.892H297.368C297.368 41.0854 297.368 41.2442 297.368 41.5616V42.6508V43.7465V44.2161C297.368 44.2161 297.209 44.2161 296.892 44.2161H295.803H294.707H294.237C294.237 44.2161 294.237 44.0596 294.237 43.7465V44.2161C294.237 44.2161 294.079 44.2161 293.761 44.2161H294.237C294.237 44.2161 294.237 44.3748 294.237 44.6922V45.7814V46.8771V47.3467C294.237 47.3467 294.079 47.3467 293.761 47.3467H294.237C294.237 47.3467 294.237 47.5055 294.237 47.8229V48.9121V50.0078V50.4774C294.237 50.4774 294.079 50.4774 293.761 50.4774H294.237C294.237 50.4774 294.237 50.6361 294.237 50.9535V52.0427V53.1385V53.608C294.237 53.608 294.079 53.608 293.761 53.608H294.237C294.237 53.608 294.237 53.7668 294.237 54.0842V55.1734V56.2691V56.7387C294.237 56.7387 294.079 56.7387 293.761 56.7387H294.237C294.237 56.7387 294.237 56.8974 294.237 57.2148V58.304V59.3998V59.8693C294.237 59.8693 294.079 59.8693 293.761 59.8693H294.237C294.237 59.8693 294.237 60.0281 294.237 60.3455V61.4347V62.5304V63C294.237 63 294.079 63 293.761 63H292.672H291.576H291.107ZM303.629 63C303.629 63 303.629 62.8435 303.629 62.5304V61.4347V60.3455V59.8693C303.629 59.8693 303.629 59.7128 303.629 59.3998V58.304V57.2148V56.7387C303.629 56.7387 303.629 56.5822 303.629 56.2691V55.1734V54.0842V53.608C303.629 53.608 303.629 53.4515 303.629 53.1385V52.0427V50.9535V50.4774C303.629 50.4774 303.629 50.3209 303.629 50.0078V48.9121V47.8229V47.3467C303.629 47.3467 303.629 47.1902 303.629 46.8771V45.7814V44.6922V44.2161C303.629 44.2161 303.629 44.0596 303.629 43.7465V42.6508V41.5616V41.0854H304.099H305.195H306.284H306.76C306.76 41.0854 306.76 41.2442 306.76 41.5616V42.6508V43.7465V44.2161C306.76 44.2161 306.601 44.2161 306.284 44.2161H306.76C306.76 44.2161 306.76 44.3748 306.76 44.6922V45.7814V46.8771V47.3467C306.76 47.3467 306.601 47.3467 306.284 47.3467H306.76C306.76 47.3467 306.76 47.5055 306.76 47.8229V48.9121V50.0078V50.4774C306.76 50.4774 306.601 50.4774 306.284 50.4774H306.76C306.76 50.4774 306.76 50.6361 306.76 50.9535V52.0427V53.1385V53.608C306.76 53.608 306.601 53.608 306.284 53.608H306.76C306.76 53.608 306.76 53.7668 306.76 54.0842V55.1734V56.2691V56.7387C306.76 56.7387 306.601 56.7387 306.284 56.7387H306.76C306.76 56.7387 306.76 56.8974 306.76 57.2148V58.304V59.3998V59.8693C306.76 59.8693 306.601 59.8693 306.284 59.8693H306.76C306.76 59.8693 306.76 60.0281 306.76 60.3455V61.4347V62.5304V63C306.76 63 306.601 63 306.284 63H305.195H304.099H303.629ZM297.368 41.0854C297.368 41.0854 297.368 40.9289 297.368 40.6158V39.5201V38.4309V37.9548H297.838H298.933H300.023H300.499C300.499 37.9548 300.499 38.1135 300.499 38.4309V37.9548H300.968H302.064H303.153H303.629C303.629 37.9548 303.629 38.1135 303.629 38.4309V39.5201V40.6158V41.0854C303.629 41.0854 303.471 41.0854 303.153 41.0854H302.064H300.968H300.499C300.499 41.0854 300.499 40.9289 300.499 40.6158V41.0854C300.499 41.0854 300.34 41.0854 300.023 41.0854H298.933H297.838H297.368Z" fill="#141DFE"/>
</svg>
