<svg width="238" height="39" viewBox="0 0 238 39" fill="none" xmlns="http://www.w3.org/2000/svg">
<path d="M23.3109 38.7983C21.8207 38.7983 20.5966 38.2661 19.6386 37.2017C18.7161 36.1373 18.2726 34.6471 18.3081 32.7311L18.3613 26.8236C18.3968 24.9076 18.2904 23.4529 18.042 22.4595C17.7936 21.466 17.3324 20.7919 16.6582 20.4371C15.9841 20.0823 14.9907 19.9049 13.6779 19.9049C12.8973 19.9049 12.3119 20.0468 11.9216 20.3306C11.5668 20.6145 11.3184 21.058 11.1765 21.6611L8.08966 34.5939C7.91225 35.339 7.93 35.8534 8.14288 36.1373C8.35576 36.4211 8.90571 36.634 9.79273 36.7759L12.1345 37.0953C12.6312 37.1307 12.8796 37.3259 12.8796 37.6807C12.8796 38.1065 12.5957 38.3193 12.028 38.3193H0.745152C0.248422 38.3193 5.75624e-05 38.1419 5.75624e-05 37.7871C5.75624e-05 37.3968 0.354865 37.1485 1.06448 37.042L2.1289 36.8824C2.90948 36.7759 3.44169 36.5985 3.72553 36.3502C4.04486 36.0663 4.27548 35.5518 4.41741 34.8067L11.6555 3.51276C11.8329 2.76767 11.8329 2.27094 11.6555 2.02257C11.4781 1.77421 11.0346 1.57907 10.3249 1.43714L9.26052 1.22426C8.79927 1.11782 8.56865 0.922674 8.56865 0.638829C8.56865 0.21306 8.88797 0.000175479 9.52663 0.000175479H20.3305C22.4239 0.000175479 24.1624 0.372722 25.5462 1.11782C26.9299 1.86291 27.9589 2.85637 28.633 4.0982C29.3426 5.34002 29.6974 6.70603 29.6974 8.19622C29.6974 10.0767 29.2184 11.7798 28.2604 13.3054C27.3025 14.8311 26.0429 16.1262 24.4817 17.1906C22.9561 18.2195 21.3062 18.9824 19.5322 19.4791C19.3193 19.5146 19.1951 19.621 19.1596 19.7984C19.1596 19.9403 19.2661 20.0645 19.479 20.171C20.4724 20.7032 21.1466 21.4483 21.5014 22.4062C21.8562 23.3642 22.0336 24.6415 22.0336 26.2382V31.6667C22.0336 33.6181 22.2465 34.9664 22.6722 35.7115C23.098 36.4211 23.6834 36.7759 24.4285 36.7759C24.7124 36.7759 24.9607 36.7404 25.1736 36.6695C25.3865 36.563 25.6703 36.3856 26.0252 36.1373C26.309 35.8889 26.5574 35.8179 26.7702 35.9244C27.0186 36.0308 27.1428 36.226 27.1428 36.5098C27.1428 37.0065 26.7702 37.521 26.0252 38.0532C25.2801 38.55 24.3753 38.7983 23.3109 38.7983ZM15.5406 18.5743C17.3146 18.5743 18.9822 18.0953 20.5434 17.1374C22.1045 16.1794 23.3641 14.8843 24.3221 13.2522C25.3155 11.6201 25.8123 9.79285 25.8123 7.77045C25.8123 5.78353 25.3155 4.22238 24.3221 3.08699C23.3641 1.91613 21.6788 1.3307 19.2661 1.3307C16.9953 1.3307 15.6825 2.04031 15.3277 3.45954L12.507 15.6472C12.0458 17.5986 13.057 18.5743 15.5406 18.5743ZM35.6069 38.3193C35.6069 38.3193 35.6069 38.1628 35.6069 37.8497V36.754V35.6648V35.1887H36.0765H37.1723H38.2615H38.7376C38.7376 35.1887 38.7376 35.3474 38.7376 35.6648V35.1887H39.2072H40.3029H41.3921H41.8682C41.8682 35.1887 41.8682 35.3474 41.8682 35.6648V35.1887H42.3378H43.4336H44.5228H44.9989C44.9989 35.1887 44.9989 35.3474 44.9989 35.6648V36.754V37.8497V38.3193C44.9989 38.3193 44.8402 38.3193 44.5228 38.3193H43.4336H42.3378H41.8682C41.8682 38.3193 41.8682 38.1628 41.8682 37.8497V38.3193C41.8682 38.3193 41.7095 38.3193 41.3921 38.3193H40.3029H39.2072H38.7376C38.7376 38.3193 38.7376 38.1628 38.7376 37.8497V38.3193C38.7376 38.3193 38.5789 38.3193 38.2615 38.3193H37.1723H36.0765H35.6069ZM32.4763 35.1887C32.4763 35.1887 32.4763 35.0322 32.4763 34.7191V33.6234V32.5342V32.058C32.4763 32.058 32.4763 31.9015 32.4763 31.5884V30.4927V29.4035V28.9274C32.4763 28.9274 32.4763 28.7709 32.4763 28.4578V27.3621V26.2729V25.7967C32.4763 25.7967 32.4763 25.6402 32.4763 25.3271V24.2314V23.1422V22.6661C32.4763 22.6661 32.4763 22.5096 32.4763 22.1965V21.1008V20.0116V19.5354C32.4763 19.5354 32.4763 19.3789 32.4763 19.0658V17.9701V16.8809V16.4048H32.9459H34.0416H35.1308H35.6069C35.6069 16.4048 35.6069 16.5635 35.6069 16.8809V17.9701V19.0658V19.5354C35.6069 19.5354 35.4482 19.5354 35.1308 19.5354H35.6069C35.6069 19.5354 35.6069 19.6941 35.6069 20.0116V21.1008V22.1965V22.6661C35.6069 22.6661 35.4482 22.6661 35.1308 22.6661H35.6069C35.6069 22.6661 35.6069 22.8248 35.6069 23.1422V22.6661H36.0765H37.1723H38.2615H38.7376C38.7376 22.6661 38.7376 22.8248 38.7376 23.1422V22.6661H39.2072H40.3029H41.3921H41.8682C41.8682 22.6661 41.8682 22.8248 41.8682 23.1422V22.6661H42.3378H43.4336H44.5228H44.9989C44.9989 22.6661 44.9989 22.8248 44.9989 23.1422V22.6661C44.9989 22.6661 44.9989 22.5096 44.9989 22.1965V21.1008V20.0116V19.5354C44.9989 19.5354 44.9989 19.3789 44.9989 19.0658V17.9701V16.8809V16.4048H45.4685H46.5642H47.6534H48.1295C48.1295 16.4048 48.1295 16.5635 48.1295 16.8809V17.9701V19.0658V19.5354C48.1295 19.5354 47.9708 19.5354 47.6534 19.5354H48.1295C48.1295 19.5354 48.1295 19.6941 48.1295 20.0116V21.1008V22.1965V22.6661C48.1295 22.6661 47.9708 22.6661 47.6534 22.6661H48.1295C48.1295 22.6661 48.1295 22.8248 48.1295 23.1422V24.2314V25.3271V25.7967C48.1295 25.7967 47.9708 25.7967 47.6534 25.7967H46.5642H45.4685H44.9989C44.9989 25.7967 44.9989 25.6402 44.9989 25.3271V25.7967C44.9989 25.7967 44.8402 25.7967 44.5228 25.7967H43.4336H42.3378H41.8682C41.8682 25.7967 41.8682 25.6402 41.8682 25.3271V25.7967C41.8682 25.7967 41.7095 25.7967 41.3921 25.7967H40.3029H39.2072H38.7376C38.7376 25.7967 38.7376 25.6402 38.7376 25.3271V25.7967C38.7376 25.7967 38.5789 25.7967 38.2615 25.7967H37.1723H36.0765H35.6069C35.6069 25.7967 35.6069 25.6402 35.6069 25.3271V25.7967C35.6069 25.7967 35.4482 25.7967 35.1308 25.7967H35.6069C35.6069 25.7967 35.6069 25.9554 35.6069 26.2729V27.3621V28.4578V28.9274C35.6069 28.9274 35.4482 28.9274 35.1308 28.9274H35.6069C35.6069 28.9274 35.6069 29.0861 35.6069 29.4035V30.4927V31.5884V32.058C35.6069 32.058 35.4482 32.058 35.1308 32.058H35.6069C35.6069 32.058 35.6069 32.2167 35.6069 32.5342V33.6234V34.7191V35.1887C35.6069 35.1887 35.4482 35.1887 35.1308 35.1887H34.0416H32.9459H32.4763ZM44.9989 35.1887C44.9989 35.1887 44.9989 35.0322 44.9989 34.7191V33.6234V32.5342V32.058H45.4685H46.5642H47.6534H48.1295C48.1295 32.058 48.1295 32.2167 48.1295 32.5342V33.6234V34.7191V35.1887C48.1295 35.1887 47.9708 35.1887 47.6534 35.1887H46.5642H45.4685H44.9989ZM35.6069 16.4048C35.6069 16.4048 35.6069 16.2483 35.6069 15.9352V14.8395V13.7503V13.2741H36.0765H37.1723H38.2615H38.7376C38.7376 13.2741 38.7376 13.4328 38.7376 13.7503V13.2741H39.2072H40.3029H41.3921H41.8682C41.8682 13.2741 41.8682 13.4328 41.8682 13.7503V13.2741H42.3378H43.4336H44.5228H44.9989C44.9989 13.2741 44.9989 13.4328 44.9989 13.7503V14.8395V15.9352V16.4048C44.9989 16.4048 44.8402 16.4048 44.5228 16.4048H43.4336H42.3378H41.8682C41.8682 16.4048 41.8682 16.2483 41.8682 15.9352V16.4048C41.8682 16.4048 41.7095 16.4048 41.3921 16.4048H40.3029H39.2072H38.7376C38.7376 16.4048 38.7376 16.2483 38.7376 15.9352V16.4048C38.7376 16.4048 38.5789 16.4048 38.2615 16.4048H37.1723H36.0765H35.6069ZM55.4484 38.3193C55.4484 38.3193 55.4484 38.1628 55.4484 37.8497V36.754V35.6648V35.1887H55.918H57.0137H58.103H58.5791C58.5791 35.1887 58.5791 35.3474 58.5791 35.6648V35.1887H59.0487H60.1444H61.2336H61.7097C61.7097 35.1887 61.7097 35.3474 61.7097 35.6648V35.1887H62.1793H63.275H64.3643H64.8404C64.8404 35.1887 64.8404 35.3474 64.8404 35.6648V36.754V37.8497V38.3193C64.8404 38.3193 64.6817 38.3193 64.3643 38.3193H63.275H62.1793H61.7097C61.7097 38.3193 61.7097 38.1628 61.7097 37.8497V38.3193C61.7097 38.3193 61.551 38.3193 61.2336 38.3193H60.1444H59.0487H58.5791C58.5791 38.3193 58.5791 38.1628 58.5791 37.8497V38.3193C58.5791 38.3193 58.4204 38.3193 58.103 38.3193H57.0137H55.918H55.4484ZM52.3178 35.1887C52.3178 35.1887 52.3178 35.0322 52.3178 34.7191V33.6234V32.5342V32.058C52.3178 32.058 52.3178 31.9015 52.3178 31.5884V30.4927V29.4035V28.9274C52.3178 28.9274 52.3178 28.7709 52.3178 28.4578V27.3621V26.2729V25.7967C52.3178 25.7967 52.3178 25.6402 52.3178 25.3271V24.2314V23.1422V22.6661C52.3178 22.6661 52.3178 22.5096 52.3178 22.1965V21.1008V20.0116V19.5354C52.3178 19.5354 52.3178 19.3789 52.3178 19.0658V17.9701V16.8809V16.4048H52.7874H53.8831H54.9723H55.4484C55.4484 16.4048 55.4484 16.5635 55.4484 16.8809V17.9701V19.0658V19.5354C55.4484 19.5354 55.2897 19.5354 54.9723 19.5354H55.4484C55.4484 19.5354 55.4484 19.6941 55.4484 20.0116V21.1008V22.1965V22.6661C55.4484 22.6661 55.2897 22.6661 54.9723 22.6661H55.4484C55.4484 22.6661 55.4484 22.8248 55.4484 23.1422V24.2314V25.3271V25.7967C55.4484 25.7967 55.2897 25.7967 54.9723 25.7967H55.4484C55.4484 25.7967 55.4484 25.9554 55.4484 26.2729V27.3621V28.4578V28.9274C55.4484 28.9274 55.2897 28.9274 54.9723 28.9274H55.4484C55.4484 28.9274 55.4484 29.0861 55.4484 29.4035V30.4927V31.5884V32.058C55.4484 32.058 55.2897 32.058 54.9723 32.058H55.4484C55.4484 32.058 55.4484 32.2167 55.4484 32.5342V33.6234V34.7191V35.1887C55.4484 35.1887 55.2897 35.1887 54.9723 35.1887H53.8831H52.7874H52.3178ZM64.8404 35.1887C64.8404 35.1887 64.8404 35.0322 64.8404 34.7191V33.6234V32.5342V32.058H65.31H66.4057H67.4949H67.971C67.971 32.058 67.971 32.2167 67.971 32.5342V33.6234V34.7191V35.1887C67.971 35.1887 67.8123 35.1887 67.4949 35.1887H66.4057H65.31H64.8404ZM64.8404 19.5354C64.8404 19.5354 64.8404 19.3789 64.8404 19.0658V17.9701V16.8809V16.4048H65.31H66.4057H67.4949H67.971C67.971 16.4048 67.971 16.5635 67.971 16.8809V17.9701V19.0658V19.5354C67.971 19.5354 67.8123 19.5354 67.4949 19.5354H66.4057H65.31H64.8404ZM55.4484 16.4048C55.4484 16.4048 55.4484 16.2483 55.4484 15.9352V14.8395V13.7503V13.2741H55.918H57.0137H58.103H58.5791C58.5791 13.2741 58.5791 13.4328 58.5791 13.7503V13.2741H59.0487H60.1444H61.2336H61.7097C61.7097 13.2741 61.7097 13.4328 61.7097 13.7503V13.2741H62.1793H63.275H64.3643H64.8404C64.8404 13.2741 64.8404 13.4328 64.8404 13.7503V14.8395V15.9352V16.4048C64.8404 16.4048 64.6817 16.4048 64.3643 16.4048H63.275H62.1793H61.7097C61.7097 16.4048 61.7097 16.2483 61.7097 15.9352V16.4048C61.7097 16.4048 61.551 16.4048 61.2336 16.4048H60.1444H59.0487H58.5791C58.5791 16.4048 58.5791 16.2483 58.5791 15.9352V16.4048C58.5791 16.4048 58.4204 16.4048 58.103 16.4048H57.0137H55.918H55.4484ZM75.2899 38.3193C75.2899 38.3193 75.2899 38.1628 75.2899 37.8497V36.754V35.6648V35.1887H75.7595H76.8552H77.9444H78.4205C78.4205 35.1887 78.4205 35.3474 78.4205 35.6648V35.1887H78.8901H79.9859H81.0751H81.5512C81.5512 35.1887 81.5512 35.3474 81.5512 35.6648V35.1887H82.0208H83.1165H84.2057H84.6818C84.6818 35.1887 84.6818 35.3474 84.6818 35.6648V36.754V37.8497V38.3193C84.6818 38.3193 84.5231 38.3193 84.2057 38.3193H83.1165H82.0208H81.5512C81.5512 38.3193 81.5512 38.1628 81.5512 37.8497V38.3193C81.5512 38.3193 81.3925 38.3193 81.0751 38.3193H79.9859H78.8901H78.4205C78.4205 38.3193 78.4205 38.1628 78.4205 37.8497V38.3193C78.4205 38.3193 78.2618 38.3193 77.9444 38.3193H76.8552H75.7595H75.2899ZM72.1592 35.1887C72.1592 35.1887 72.1592 35.0322 72.1592 34.7191V33.6234V32.5342V32.058C72.1592 32.058 72.1592 31.9015 72.1592 31.5884V30.4927V29.4035V28.9274C72.1592 28.9274 72.1592 28.7709 72.1592 28.4578V27.3621V26.2729V25.7967C72.1592 25.7967 72.1592 25.6402 72.1592 25.3271V24.2314V23.1422V22.6661C72.1592 22.6661 72.1592 22.5096 72.1592 22.1965V21.1008V20.0116V19.5354C72.1592 19.5354 72.1592 19.3789 72.1592 19.0658V17.9701V16.8809V16.4048H72.6288H73.7246H74.8138H75.2899C75.2899 16.4048 75.2899 16.5635 75.2899 16.8809V17.9701V19.0658V19.5354C75.2899 19.5354 75.1312 19.5354 74.8138 19.5354H75.2899C75.2899 19.5354 75.2899 19.6941 75.2899 20.0116V21.1008V22.1965V22.6661C75.2899 22.6661 75.1312 22.6661 74.8138 22.6661H75.2899C75.2899 22.6661 75.2899 22.8248 75.2899 23.1422V22.6661H75.7595H76.8552H77.9444H78.4205C78.4205 22.6661 78.4205 22.8248 78.4205 23.1422V22.6661H78.8901H79.9859H81.0751H81.5512C81.5512 22.6661 81.5512 22.8248 81.5512 23.1422V22.6661H82.0208H83.1165H84.2057H84.6818C84.6818 22.6661 84.6818 22.8248 84.6818 23.1422V22.6661C84.6818 22.6661 84.6818 22.5096 84.6818 22.1965V21.1008V20.0116V19.5354C84.6818 19.5354 84.6818 19.3789 84.6818 19.0658V17.9701V16.8809V16.4048H85.1514H86.2472H87.3364H87.8125C87.8125 16.4048 87.8125 16.5635 87.8125 16.8809V17.9701V19.0658V19.5354C87.8125 19.5354 87.6538 19.5354 87.3364 19.5354H87.8125C87.8125 19.5354 87.8125 19.6941 87.8125 20.0116V21.1008V22.1965V22.6661C87.8125 22.6661 87.6538 22.6661 87.3364 22.6661H87.8125C87.8125 22.6661 87.8125 22.8248 87.8125 23.1422V24.2314V25.3271V25.7967C87.8125 25.7967 87.6538 25.7967 87.3364 25.7967H86.2472H85.1514H84.6818C84.6818 25.7967 84.6818 25.6402 84.6818 25.3271V25.7967C84.6818 25.7967 84.5231 25.7967 84.2057 25.7967H83.1165H82.0208H81.5512C81.5512 25.7967 81.5512 25.6402 81.5512 25.3271V25.7967C81.5512 25.7967 81.3925 25.7967 81.0751 25.7967H79.9859H78.8901H78.4205C78.4205 25.7967 78.4205 25.6402 78.4205 25.3271V25.7967C78.4205 25.7967 78.2618 25.7967 77.9444 25.7967H76.8552H75.7595H75.2899C75.2899 25.7967 75.2899 25.6402 75.2899 25.3271V25.7967C75.2899 25.7967 75.1312 25.7967 74.8138 25.7967H75.2899C75.2899 25.7967 75.2899 25.9554 75.2899 26.2729V27.3621V28.4578V28.9274C75.2899 28.9274 75.1312 28.9274 74.8138 28.9274H75.2899C75.2899 28.9274 75.2899 29.0861 75.2899 29.4035V30.4927V31.5884V32.058C75.2899 32.058 75.1312 32.058 74.8138 32.058H75.2899C75.2899 32.058 75.2899 32.2167 75.2899 32.5342V33.6234V34.7191V35.1887C75.2899 35.1887 75.1312 35.1887 74.8138 35.1887H73.7246H72.6288H72.1592ZM84.6818 35.1887C84.6818 35.1887 84.6818 35.0322 84.6818 34.7191V33.6234V32.5342V32.058H85.1514H86.2472H87.3364H87.8125C87.8125 32.058 87.8125 32.2167 87.8125 32.5342V33.6234V34.7191V35.1887C87.8125 35.1887 87.6538 35.1887 87.3364 35.1887H86.2472H85.1514H84.6818ZM75.2899 16.4048C75.2899 16.4048 75.2899 16.2483 75.2899 15.9352V14.8395V13.7503V13.2741H75.7595H76.8552H77.9444H78.4205C78.4205 13.2741 78.4205 13.4328 78.4205 13.7503V13.2741H78.8901H79.9859H81.0751H81.5512C81.5512 13.2741 81.5512 13.4328 81.5512 13.7503V13.2741H82.0208H83.1165H84.2057H84.6818C84.6818 13.2741 84.6818 13.4328 84.6818 13.7503V14.8395V15.9352V16.4048C84.6818 16.4048 84.5231 16.4048 84.2057 16.4048H83.1165H82.0208H81.5512C81.5512 16.4048 81.5512 16.2483 81.5512 15.9352V16.4048C81.5512 16.4048 81.3925 16.4048 81.0751 16.4048H79.9859H78.8901H78.4205C78.4205 16.4048 78.4205 16.2483 78.4205 15.9352V16.4048C78.4205 16.4048 78.2618 16.4048 77.9444 16.4048H76.8552H75.7595H75.2899ZM92.0007 38.3193C92.0007 38.3193 92.0007 38.1628 92.0007 37.8497V36.754V35.6648V35.1887C92.0007 35.1887 92.0007 35.0322 92.0007 34.7191V33.6234V32.5342V32.058C92.0007 32.058 92.0007 31.9015 92.0007 31.5884V30.4927V29.4035V28.9274C92.0007 28.9274 92.0007 28.7709 92.0007 28.4578V27.3621V26.2729V25.7967C92.0007 25.7967 92.0007 25.6402 92.0007 25.3271V24.2314V23.1422V22.6661C92.0007 22.6661 92.0007 22.5096 92.0007 22.1965V21.1008V20.0116V19.5354C92.0007 19.5354 92.0007 19.3789 92.0007 19.0658V17.9701V16.8809V16.4048C92.0007 16.4048 92.0007 16.2483 92.0007 15.9352V14.8395V13.7503V13.2741H92.4703H93.566H94.6553H95.1314C95.1314 13.2741 95.1314 13.4328 95.1314 13.7503V14.8395V15.9352V16.4048C95.1314 16.4048 94.9727 16.4048 94.6553 16.4048H95.1314C95.1314 16.4048 95.1314 16.5635 95.1314 16.8809V16.4048H95.601H96.6967H97.7859H98.262C98.262 16.4048 98.262 16.5635 98.262 16.8809V17.9701V19.0658V19.5354C98.262 19.5354 98.1033 19.5354 97.7859 19.5354H96.6967H95.601H95.1314C95.1314 19.5354 95.1314 19.3789 95.1314 19.0658V19.5354C95.1314 19.5354 94.9727 19.5354 94.6553 19.5354H95.1314C95.1314 19.5354 95.1314 19.6941 95.1314 20.0116V21.1008V22.1965V22.6661C95.1314 22.6661 94.9727 22.6661 94.6553 22.6661H95.1314C95.1314 22.6661 95.1314 22.8248 95.1314 23.1422V24.2314V25.3271V25.7967C95.1314 25.7967 94.9727 25.7967 94.6553 25.7967H95.1314C95.1314 25.7967 95.1314 25.9554 95.1314 26.2729V27.3621V28.4578V28.9274C95.1314 28.9274 94.9727 28.9274 94.6553 28.9274H95.1314C95.1314 28.9274 95.1314 29.0861 95.1314 29.4035V30.4927V31.5884V32.058C95.1314 32.058 94.9727 32.058 94.6553 32.058H95.1314C95.1314 32.058 95.1314 32.2167 95.1314 32.5342V33.6234V34.7191V35.1887C95.1314 35.1887 94.9727 35.1887 94.6553 35.1887H95.1314C95.1314 35.1887 95.1314 35.3474 95.1314 35.6648V36.754V37.8497V38.3193C95.1314 38.3193 94.9727 38.3193 94.6553 38.3193H93.566H92.4703H92.0007ZM104.523 38.3193C104.523 38.3193 104.523 38.1628 104.523 37.8497V36.754V35.6648V35.1887C104.523 35.1887 104.523 35.0322 104.523 34.7191V33.6234V32.5342V32.058C104.523 32.058 104.523 31.9015 104.523 31.5884V30.4927V29.4035V28.9274C104.523 28.9274 104.523 28.7709 104.523 28.4578V27.3621V26.2729V25.7967C104.523 25.7967 104.523 25.6402 104.523 25.3271V24.2314V23.1422V22.6661C104.523 22.6661 104.523 22.5096 104.523 22.1965V21.1008V20.0116V19.5354C104.523 19.5354 104.523 19.3789 104.523 19.0658V17.9701V16.8809V16.4048H104.993H106.089H107.178H107.654C107.654 16.4048 107.654 16.5635 107.654 16.8809V17.9701V19.0658V19.5354C107.654 19.5354 107.495 19.5354 107.178 19.5354H107.654C107.654 19.5354 107.654 19.6941 107.654 20.0116V21.1008V22.1965V22.6661C107.654 22.6661 107.495 22.6661 107.178 22.6661H107.654C107.654 22.6661 107.654 22.8248 107.654 23.1422V24.2314V25.3271V25.7967C107.654 25.7967 107.495 25.7967 107.178 25.7967H107.654C107.654 25.7967 107.654 25.9554 107.654 26.2729V27.3621V28.4578V28.9274C107.654 28.9274 107.495 28.9274 107.178 28.9274H107.654C107.654 28.9274 107.654 29.0861 107.654 29.4035V30.4927V31.5884V32.058C107.654 32.058 107.495 32.058 107.178 32.058H107.654C107.654 32.058 107.654 32.2167 107.654 32.5342V33.6234V34.7191V35.1887C107.654 35.1887 107.495 35.1887 107.178 35.1887H107.654C107.654 35.1887 107.654 35.3474 107.654 35.6648V36.754V37.8497V38.3193C107.654 38.3193 107.495 38.3193 107.178 38.3193H106.089H104.993H104.523ZM98.262 16.4048C98.262 16.4048 98.262 16.2483 98.262 15.9352V14.8395V13.7503V13.2741H98.7316H99.8273H100.917H101.393C101.393 13.2741 101.393 13.4328 101.393 13.7503V13.2741H101.862H102.958H104.047H104.523C104.523 13.2741 104.523 13.4328 104.523 13.7503V14.8395V15.9352V16.4048C104.523 16.4048 104.365 16.4048 104.047 16.4048H102.958H101.862H101.393C101.393 16.4048 101.393 16.2483 101.393 15.9352V16.4048C101.393 16.4048 101.234 16.4048 100.917 16.4048H99.8273H98.7316H98.262ZM118.097 38.3193C118.097 38.3193 118.097 38.1628 118.097 37.8497V36.754V35.6648V35.1887H118.567H119.663H120.752H121.228C121.228 35.1887 121.228 35.3474 121.228 35.6648V35.1887H121.698H122.793H123.883H124.359C124.359 35.1887 124.359 35.3474 124.359 35.6648V36.754V37.8497V38.3193C124.359 38.3193 124.2 38.3193 123.883 38.3193H122.793H121.698H121.228C121.228 38.3193 121.228 38.1628 121.228 37.8497V38.3193C121.228 38.3193 121.069 38.3193 120.752 38.3193H119.663H118.567H118.097ZM111.836 16.4048C111.836 16.4048 111.836 16.2483 111.836 15.9352V14.8395V13.7503V13.2741H112.306H113.401H114.491H114.967C114.967 13.2741 114.967 13.4328 114.967 13.7503V13.2741C114.967 13.2741 114.967 13.1176 114.967 12.8045V11.7088V10.6196V10.1435C114.967 10.1435 114.967 9.98695 114.967 9.67389V8.57816V7.48895V7.01283H115.436H116.532H117.621H118.097C118.097 7.01283 118.097 7.17154 118.097 7.48895V8.57816V9.67389V10.1435C118.097 10.1435 117.939 10.1435 117.621 10.1435H118.097C118.097 10.1435 118.097 10.3022 118.097 10.6196V11.7088V12.8045V13.2741C118.097 13.2741 117.939 13.2741 117.621 13.2741H118.097C118.097 13.2741 118.097 13.4328 118.097 13.7503V13.2741H118.567H119.663H120.752H121.228C121.228 13.2741 121.228 13.4328 121.228 13.7503V13.2741H121.698H122.793H123.883H124.359C124.359 13.2741 124.359 13.4328 124.359 13.7503V14.8395V15.9352V16.4048C124.359 16.4048 124.2 16.4048 123.883 16.4048H122.793H121.698H121.228C121.228 16.4048 121.228 16.2483 121.228 15.9352V16.4048C121.228 16.4048 121.069 16.4048 120.752 16.4048H119.663H118.567H118.097C118.097 16.4048 118.097 16.2483 118.097 15.9352V16.4048C118.097 16.4048 117.939 16.4048 117.621 16.4048H118.097C118.097 16.4048 118.097 16.5635 118.097 16.8809V17.9701V19.0658V19.5354C118.097 19.5354 117.939 19.5354 117.621 19.5354H118.097C118.097 19.5354 118.097 19.6941 118.097 20.0116V21.1008V22.1965V22.6661C118.097 22.6661 117.939 22.6661 117.621 22.6661H118.097C118.097 22.6661 118.097 22.8248 118.097 23.1422V24.2314V25.3271V25.7967C118.097 25.7967 117.939 25.7967 117.621 25.7967H118.097C118.097 25.7967 118.097 25.9554 118.097 26.2729V27.3621V28.4578V28.9274C118.097 28.9274 117.939 28.9274 117.621 28.9274H118.097C118.097 28.9274 118.097 29.0861 118.097 29.4035V30.4927V31.5884V32.058C118.097 32.058 117.939 32.058 117.621 32.058H118.097C118.097 32.058 118.097 32.2167 118.097 32.5342V33.6234V34.7191V35.1887C118.097 35.1887 117.939 35.1887 117.621 35.1887H116.532H115.436H114.967C114.967 35.1887 114.967 35.0322 114.967 34.7191V33.6234V32.5342V32.058C114.967 32.058 114.967 31.9015 114.967 31.5884V30.4927V29.4035V28.9274C114.967 28.9274 114.967 28.7709 114.967 28.4578V27.3621V26.2729V25.7967C114.967 25.7967 114.967 25.6402 114.967 25.3271V24.2314V23.1422V22.6661C114.967 22.6661 114.967 22.5096 114.967 22.1965V21.1008V20.0116V19.5354C114.967 19.5354 114.967 19.3789 114.967 19.0658V17.9701V16.8809V16.4048C114.967 16.4048 114.967 16.2483 114.967 15.9352V16.4048C114.967 16.4048 114.808 16.4048 114.491 16.4048H113.401H112.306H111.836ZM133.087 38.3193C132.59 38.3193 132.342 38.1419 132.342 37.7871C132.342 37.3968 132.696 37.1485 133.406 37.042L134.471 36.8824C135.251 36.7759 135.783 36.5985 136.067 36.3502C136.386 36.0663 136.617 35.5518 136.759 34.8067L143.997 3.51276C144.175 2.76767 144.175 2.27094 143.997 2.02257C143.82 1.77421 143.376 1.57907 142.667 1.43714L141.602 1.22426C141.141 1.11782 140.91 0.922674 140.91 0.638829C140.91 0.21306 141.23 0.000175479 141.868 0.000175479H151.501C152.033 0.000175479 152.246 0.21306 152.14 0.638829C152.069 0.958154 151.838 1.1533 151.448 1.22426L149.958 1.43714C149.177 1.54359 148.645 1.73873 148.361 2.02257C148.077 2.30642 147.847 2.82089 147.669 3.56598L140.751 33.3698C140.467 34.6471 140.644 35.5696 141.283 36.1373C141.921 36.705 142.844 36.9888 144.05 36.9888C145.399 36.9888 146.782 36.4743 148.202 35.4454C149.621 34.4165 150.792 32.8021 151.714 30.6023L153.311 26.8768C153.488 26.4156 153.772 26.1849 154.162 26.1849C154.695 26.1849 154.872 26.4865 154.695 27.0897L151.714 37.0953C151.501 37.9113 150.969 38.3193 150.118 38.3193H133.087ZM162.024 38.3193C162.024 38.3193 162.024 38.1628 162.024 37.8497V36.754V35.6648V35.1887H162.493H163.589H164.678H165.154C165.154 35.1887 165.154 35.3474 165.154 35.6648V35.1887H165.624H166.72H167.809H168.285C168.285 35.1887 168.285 35.3474 168.285 35.6648V35.1887H168.754H169.85H170.939H171.416C171.416 35.1887 171.416 35.3474 171.416 35.6648V36.754V37.8497V38.3193C171.416 38.3193 171.257 38.3193 170.939 38.3193H169.85H168.754H168.285C168.285 38.3193 168.285 38.1628 168.285 37.8497V38.3193C168.285 38.3193 168.126 38.3193 167.809 38.3193H166.72H165.624H165.154C165.154 38.3193 165.154 38.1628 165.154 37.8497V38.3193C165.154 38.3193 164.996 38.3193 164.678 38.3193H163.589H162.493H162.024ZM158.893 35.1887C158.893 35.1887 158.893 35.0322 158.893 34.7191V33.6234V32.5342V32.058C158.893 32.058 158.893 31.9015 158.893 31.5884V30.4927V29.4035V28.9274C158.893 28.9274 158.893 28.7709 158.893 28.4578V27.3621V26.2729V25.7967C158.893 25.7967 158.893 25.6402 158.893 25.3271V24.2314V23.1422V22.6661C158.893 22.6661 158.893 22.5096 158.893 22.1965V21.1008V20.0116V19.5354C158.893 19.5354 158.893 19.3789 158.893 19.0658V17.9701V16.8809V16.4048H159.363H160.458H161.547H162.024C162.024 16.4048 162.024 16.5635 162.024 16.8809V17.9701V19.0658V19.5354C162.024 19.5354 161.865 19.5354 161.547 19.5354H162.024C162.024 19.5354 162.024 19.6941 162.024 20.0116V21.1008V22.1965V22.6661C162.024 22.6661 161.865 22.6661 161.547 22.6661H162.024C162.024 22.6661 162.024 22.8248 162.024 23.1422V24.2314V25.3271V25.7967C162.024 25.7967 161.865 25.7967 161.547 25.7967H162.024C162.024 25.7967 162.024 25.9554 162.024 26.2729V27.3621V28.4578V28.9274C162.024 28.9274 161.865 28.9274 161.547 28.9274H162.024C162.024 28.9274 162.024 29.0861 162.024 29.4035V30.4927V31.5884V32.058C162.024 32.058 161.865 32.058 161.547 32.058H162.024C162.024 32.058 162.024 32.2167 162.024 32.5342V33.6234V34.7191V35.1887C162.024 35.1887 161.865 35.1887 161.547 35.1887H160.458H159.363H158.893ZM171.416 35.1887C171.416 35.1887 171.416 35.0322 171.416 34.7191V33.6234V32.5342V32.058C171.416 32.058 171.416 31.9015 171.416 31.5884V30.4927V29.4035V28.9274C171.416 28.9274 171.416 28.7709 171.416 28.4578V27.3621V26.2729V25.7967C171.416 25.7967 171.416 25.6402 171.416 25.3271V24.2314V23.1422V22.6661C171.416 22.6661 171.416 22.5096 171.416 22.1965V21.1008V20.0116V19.5354C171.416 19.5354 171.416 19.3789 171.416 19.0658V17.9701V16.8809V16.4048H171.885H172.981H174.07H174.546C174.546 16.4048 174.546 16.5635 174.546 16.8809V17.9701V19.0658V19.5354C174.546 19.5354 174.387 19.5354 174.07 19.5354H174.546C174.546 19.5354 174.546 19.6941 174.546 20.0116V21.1008V22.1965V22.6661C174.546 22.6661 174.387 22.6661 174.07 22.6661H174.546C174.546 22.6661 174.546 22.8248 174.546 23.1422V24.2314V25.3271V25.7967C174.546 25.7967 174.387 25.7967 174.07 25.7967H174.546C174.546 25.7967 174.546 25.9554 174.546 26.2729V27.3621V28.4578V28.9274C174.546 28.9274 174.387 28.9274 174.07 28.9274H174.546C174.546 28.9274 174.546 29.0861 174.546 29.4035V30.4927V31.5884V32.058C174.546 32.058 174.387 32.058 174.07 32.058H174.546C174.546 32.058 174.546 32.2167 174.546 32.5342V33.6234V34.7191V35.1887C174.546 35.1887 174.387 35.1887 174.07 35.1887H172.981H171.885H171.416ZM162.024 16.4048C162.024 16.4048 162.024 16.2483 162.024 15.9352V14.8395V13.7503V13.2741H162.493H163.589H164.678H165.154C165.154 13.2741 165.154 13.4328 165.154 13.7503V13.2741H165.624H166.72H167.809H168.285C168.285 13.2741 168.285 13.4328 168.285 13.7503V13.2741H168.754H169.85H170.939H171.416C171.416 13.2741 171.416 13.4328 171.416 13.7503V14.8395V15.9352V16.4048C171.416 16.4048 171.257 16.4048 170.939 16.4048H169.85H168.754H168.285C168.285 16.4048 168.285 16.2483 168.285 15.9352V16.4048C168.285 16.4048 168.126 16.4048 167.809 16.4048H166.72H165.624H165.154C165.154 16.4048 165.154 16.2483 165.154 15.9352V16.4048C165.154 16.4048 164.996 16.4048 164.678 16.4048H163.589H162.493H162.024ZM181.859 38.3193C181.859 38.3193 181.859 38.1628 181.859 37.8497V36.754V35.6648V35.1887H182.329H183.424H184.513H184.99C184.99 35.1887 184.99 35.3474 184.99 35.6648V35.1887H185.459H186.555H187.644H188.12C188.12 35.1887 188.12 35.3474 188.12 35.6648V36.754V37.8497V38.3193C188.12 38.3193 187.962 38.3193 187.644 38.3193H186.555H185.459H184.99C184.99 38.3193 184.99 38.1628 184.99 37.8497V38.3193C184.99 38.3193 184.831 38.3193 184.513 38.3193H183.424H182.329H181.859ZM178.728 35.1887C178.728 35.1887 178.728 35.0322 178.728 34.7191V33.6234V32.5342V32.058C178.728 32.058 178.728 31.9015 178.728 31.5884V30.4927V29.4035V28.9274H179.198H180.294H181.383H181.859C181.859 28.9274 181.859 29.0861 181.859 29.4035V30.4927V31.5884V32.058C181.859 32.058 181.7 32.058 181.383 32.058H181.859C181.859 32.058 181.859 32.2167 181.859 32.5342V33.6234V34.7191V35.1887C181.859 35.1887 181.7 35.1887 181.383 35.1887H180.294H179.198H178.728ZM181.859 28.9274C181.859 28.9274 181.859 28.7709 181.859 28.4578V27.3621V26.2729V25.7967H182.329H183.424H184.513H184.99C184.99 25.7967 184.99 25.9554 184.99 26.2729V25.7967H185.459H186.555H187.644H188.12C188.12 25.7967 188.12 25.9554 188.12 26.2729V25.7967H188.59H189.686H190.775H191.251C191.251 25.7967 191.251 25.9554 191.251 26.2729V25.7967C191.251 25.7967 191.251 25.6402 191.251 25.3271V24.2314V23.1422V22.6661C191.251 22.6661 191.251 22.5096 191.251 22.1965V21.1008V20.0116V19.5354C191.251 19.5354 191.251 19.3789 191.251 19.0658V17.9701V16.8809V16.4048H191.72H192.816H193.905H194.382C194.382 16.4048 194.382 16.5635 194.382 16.8809V17.9701V19.0658V19.5354C194.382 19.5354 194.223 19.5354 193.905 19.5354H194.382C194.382 19.5354 194.382 19.6941 194.382 20.0116V21.1008V22.1965V22.6661C194.382 22.6661 194.223 22.6661 193.905 22.6661H194.382C194.382 22.6661 194.382 22.8248 194.382 23.1422V24.2314V25.3271V25.7967C194.382 25.7967 194.223 25.7967 193.905 25.7967H194.382C194.382 25.7967 194.382 25.9554 194.382 26.2729V27.3621V28.4578V28.9274C194.382 28.9274 194.223 28.9274 193.905 28.9274H194.382C194.382 28.9274 194.382 29.0861 194.382 29.4035V30.4927V31.5884V32.058C194.382 32.058 194.223 32.058 193.905 32.058H194.382C194.382 32.058 194.382 32.2167 194.382 32.5342V33.6234V34.7191V35.1887C194.382 35.1887 194.223 35.1887 193.905 35.1887H194.382C194.382 35.1887 194.382 35.3474 194.382 35.6648V36.754V37.8497V38.3193C194.382 38.3193 194.223 38.3193 193.905 38.3193H192.816H191.72H191.251C191.251 38.3193 191.251 38.1628 191.251 37.8497V36.754V35.6648V35.1887C191.251 35.1887 191.251 35.0322 191.251 34.7191V35.1887C191.251 35.1887 191.092 35.1887 190.775 35.1887H189.686H188.59H188.12C188.12 35.1887 188.12 35.0322 188.12 34.7191V33.6234V32.5342V32.058H188.59H189.686H190.775H191.251C191.251 32.058 191.251 32.2167 191.251 32.5342V32.058C191.251 32.058 191.251 31.9015 191.251 31.5884V30.4927V29.4035V28.9274C191.251 28.9274 191.251 28.7709 191.251 28.4578V28.9274C191.251 28.9274 191.092 28.9274 190.775 28.9274H189.686H188.59H188.12C188.12 28.9274 188.12 28.7709 188.12 28.4578V28.9274C188.12 28.9274 187.962 28.9274 187.644 28.9274H186.555H185.459H184.99C184.99 28.9274 184.99 28.7709 184.99 28.4578V28.9274C184.99 28.9274 184.831 28.9274 184.513 28.9274H183.424H182.329H181.859ZM178.728 19.5354C178.728 19.5354 178.728 19.3789 178.728 19.0658V17.9701V16.8809V16.4048H179.198H180.294H181.383H181.859C181.859 16.4048 181.859 16.5635 181.859 16.8809V17.9701V19.0658V19.5354C181.859 19.5354 181.7 19.5354 181.383 19.5354H180.294H179.198H178.728ZM181.859 16.4048C181.859 16.4048 181.859 16.2483 181.859 15.9352V14.8395V13.7503V13.2741H182.329H183.424H184.513H184.99C184.99 13.2741 184.99 13.4328 184.99 13.7503V13.2741H185.459H186.555H187.644H188.12C188.12 13.2741 188.12 13.4328 188.12 13.7503V13.2741H188.59H189.686H190.775H191.251C191.251 13.2741 191.251 13.4328 191.251 13.7503V14.8395V15.9352V16.4048C191.251 16.4048 191.092 16.4048 190.775 16.4048H189.686H188.59H188.12C188.12 16.4048 188.12 16.2483 188.12 15.9352V16.4048C188.12 16.4048 187.962 16.4048 187.644 16.4048H186.555H185.459H184.99C184.99 16.4048 184.99 16.2483 184.99 15.9352V16.4048C184.99 16.4048 184.831 16.4048 184.513 16.4048H183.424H182.329H181.859ZM200.135 38.3193C200.135 38.3193 200.135 38.1628 200.135 37.8497V36.754V35.6648V35.1887C200.135 35.1887 200.135 35.0322 200.135 34.7191V33.6234V32.5342V32.058C200.135 32.058 200.135 31.9015 200.135 31.5884V30.4927V29.4035V28.9274C200.135 28.9274 200.135 28.7709 200.135 28.4578V27.3621V26.2729V25.7967C200.135 25.7967 200.135 25.6402 200.135 25.3271V24.2314V23.1422V22.6661C200.135 22.6661 200.135 22.5096 200.135 22.1965V21.1008V20.0116V19.5354C200.135 19.5354 200.135 19.3789 200.135 19.0658V17.9701V16.8809V16.4048C200.135 16.4048 200.135 16.2483 200.135 15.9352V14.8395V13.7503V13.2741H200.605H201.7H202.79H203.266C203.266 13.2741 203.266 13.4328 203.266 13.7503V14.8395V15.9352V16.4048C203.266 16.4048 203.107 16.4048 202.79 16.4048H203.266C203.266 16.4048 203.266 16.5635 203.266 16.8809V16.4048H203.735H204.831H205.92H206.396C206.396 16.4048 206.396 16.5635 206.396 16.8809V17.9701V19.0658V19.5354C206.396 19.5354 206.238 19.5354 205.92 19.5354H204.831H203.735H203.266C203.266 19.5354 203.266 19.3789 203.266 19.0658V19.5354C203.266 19.5354 203.107 19.5354 202.79 19.5354H203.266C203.266 19.5354 203.266 19.6941 203.266 20.0116V21.1008V22.1965V22.6661C203.266 22.6661 203.107 22.6661 202.79 22.6661H203.266C203.266 22.6661 203.266 22.8248 203.266 23.1422V24.2314V25.3271V25.7967C203.266 25.7967 203.107 25.7967 202.79 25.7967H203.266C203.266 25.7967 203.266 25.9554 203.266 26.2729V27.3621V28.4578V28.9274C203.266 28.9274 203.107 28.9274 202.79 28.9274H203.266C203.266 28.9274 203.266 29.0861 203.266 29.4035V30.4927V31.5884V32.058C203.266 32.058 203.107 32.058 202.79 32.058H203.266C203.266 32.058 203.266 32.2167 203.266 32.5342V33.6234V34.7191V35.1887C203.266 35.1887 203.107 35.1887 202.79 35.1887H203.266C203.266 35.1887 203.266 35.3474 203.266 35.6648V36.754V37.8497V38.3193C203.266 38.3193 203.107 38.3193 202.79 38.3193H201.7H200.605H200.135ZM212.658 38.3193C212.658 38.3193 212.658 38.1628 212.658 37.8497V36.754V35.6648V35.1887C212.658 35.1887 212.658 35.0322 212.658 34.7191V33.6234V32.5342V32.058C212.658 32.058 212.658 31.9015 212.658 31.5884V30.4927V29.4035V28.9274C212.658 28.9274 212.658 28.7709 212.658 28.4578V27.3621V26.2729V25.7967C212.658 25.7967 212.658 25.6402 212.658 25.3271V24.2314V23.1422V22.6661C212.658 22.6661 212.658 22.5096 212.658 22.1965V21.1008V20.0116V19.5354C212.658 19.5354 212.658 19.3789 212.658 19.0658V17.9701V16.8809V16.4048H213.127H214.223H215.312H215.788C215.788 16.4048 215.788 16.5635 215.788 16.8809V17.9701V19.0658V19.5354C215.788 19.5354 215.63 19.5354 215.312 19.5354H215.788C215.788 19.5354 215.788 19.6941 215.788 20.0116V21.1008V22.1965V22.6661C215.788 22.6661 215.63 22.6661 215.312 22.6661H215.788C215.788 22.6661 215.788 22.8248 215.788 23.1422V24.2314V25.3271V25.7967C215.788 25.7967 215.63 25.7967 215.312 25.7967H215.788C215.788 25.7967 215.788 25.9554 215.788 26.2729V27.3621V28.4578V28.9274C215.788 28.9274 215.63 28.9274 215.312 28.9274H215.788C215.788 28.9274 215.788 29.0861 215.788 29.4035V30.4927V31.5884V32.058C215.788 32.058 215.63 32.058 215.312 32.058H215.788C215.788 32.058 215.788 32.2167 215.788 32.5342V33.6234V34.7191V35.1887C215.788 35.1887 215.63 35.1887 215.312 35.1887H215.788C215.788 35.1887 215.788 35.3474 215.788 35.6648V36.754V37.8497V38.3193C215.788 38.3193 215.63 38.3193 215.312 38.3193H214.223H213.127H212.658ZM206.396 16.4048C206.396 16.4048 206.396 16.2483 206.396 15.9352V14.8395V13.7503V13.2741H206.866H207.962H209.051H209.527C209.527 13.2741 209.527 13.4328 209.527 13.7503V13.2741H209.997H211.092H212.182H212.658C212.658 13.2741 212.658 13.4328 212.658 13.7503V14.8395V15.9352V16.4048C212.658 16.4048 212.499 16.4048 212.182 16.4048H211.092H209.997H209.527C209.527 16.4048 209.527 16.2483 209.527 15.9352V16.4048C209.527 16.4048 209.368 16.4048 209.051 16.4048H207.962H206.866H206.396ZM224.666 38.3193C224.666 38.3193 224.666 38.1628 224.666 37.8497V36.754V35.6648V35.1887H225.136H226.232H227.321H227.797C227.797 35.1887 227.797 35.3474 227.797 35.6648V35.1887H228.267H229.362H230.452H230.928C230.928 35.1887 230.928 35.3474 230.928 35.6648V35.1887H231.397H232.493H233.582H234.058C234.058 35.1887 234.058 35.3474 234.058 35.6648V36.754V37.8497V38.3193C234.058 38.3193 233.9 38.3193 233.582 38.3193H232.493H231.397H230.928C230.928 38.3193 230.928 38.1628 230.928 37.8497V38.3193C230.928 38.3193 230.769 38.3193 230.452 38.3193H229.362H228.267H227.797C227.797 38.3193 227.797 38.1628 227.797 37.8497V38.3193C227.797 38.3193 227.638 38.3193 227.321 38.3193H226.232H225.136H224.666ZM221.536 35.1887C221.536 35.1887 221.536 35.0322 221.536 34.7191V33.6234V32.5342V32.058C221.536 32.058 221.536 31.9015 221.536 31.5884V30.4927V29.4035V28.9274H222.005H223.101H224.19H224.666C224.666 28.9274 224.666 29.0861 224.666 29.4035V30.4927V31.5884V32.058C224.666 32.058 224.508 32.058 224.19 32.058H224.666C224.666 32.058 224.666 32.2167 224.666 32.5342V33.6234V34.7191V35.1887C224.666 35.1887 224.508 35.1887 224.19 35.1887H223.101H222.005H221.536ZM234.058 35.1887C234.058 35.1887 234.058 35.0322 234.058 34.7191V33.6234V32.5342V32.058C234.058 32.058 234.058 31.9015 234.058 31.5884V30.4927V29.4035V28.9274H234.528H235.624H236.713H237.189C237.189 28.9274 237.189 29.0861 237.189 29.4035V30.4927V31.5884V32.058C237.189 32.058 237.03 32.058 236.713 32.058H237.189C237.189 32.058 237.189 32.2167 237.189 32.5342V33.6234V34.7191V35.1887C237.189 35.1887 237.03 35.1887 236.713 35.1887H235.624H234.528H234.058ZM230.928 28.9274C230.928 28.9274 230.928 28.7709 230.928 28.4578V27.3621V26.2729V25.7967H231.397H232.493H233.582H234.058C234.058 25.7967 234.058 25.9554 234.058 26.2729V27.3621V28.4578V28.9274C234.058 28.9274 233.9 28.9274 233.582 28.9274H232.493H231.397H230.928ZM227.797 27.3621C227.797 27.3621 227.797 27.2055 227.797 26.8925V25.7967V24.7075V24.2314H228.267H229.362H230.452H230.928C230.928 24.2314 230.928 24.3901 230.928 24.7075V25.7967V26.8925V27.3621C230.928 27.3621 230.769 27.3621 230.452 27.3621H229.362H228.267H227.797ZM224.666 25.7967C224.666 25.7967 224.666 25.6402 224.666 25.3271V24.2314V23.1422V22.6661H225.136H226.232H227.321H227.797C227.797 22.6661 227.797 22.8248 227.797 23.1422V24.2314V25.3271V25.7967C227.797 25.7967 227.638 25.7967 227.321 25.7967H226.232H225.136H224.666ZM221.536 22.6661C221.536 22.6661 221.536 22.5096 221.536 22.1965V21.1008V20.0116V19.5354C221.536 19.5354 221.536 19.3789 221.536 19.0658V17.9701V16.8809V16.4048H222.005H223.101H224.19H224.666C224.666 16.4048 224.666 16.5635 224.666 16.8809V17.9701V19.0658V19.5354C224.666 19.5354 224.508 19.5354 224.19 19.5354H224.666C224.666 19.5354 224.666 19.6941 224.666 20.0116V21.1008V22.1965V22.6661C224.666 22.6661 224.508 22.6661 224.19 22.6661H223.101H222.005H221.536ZM234.058 22.6661C234.058 22.6661 234.058 22.5096 234.058 22.1965V21.1008V20.0116V19.5354C234.058 19.5354 234.058 19.3789 234.058 19.0658V17.9701V16.8809V16.4048H234.528H235.624H236.713H237.189C237.189 16.4048 237.189 16.5635 237.189 16.8809V17.9701V19.0658V19.5354C237.189 19.5354 237.03 19.5354 236.713 19.5354H237.189C237.189 19.5354 237.189 19.6941 237.189 20.0116V21.1008V22.1965V22.6661C237.189 22.6661 237.03 22.6661 236.713 22.6661H235.624H234.528H234.058ZM224.666 16.4048C224.666 16.4048 224.666 16.2483 224.666 15.9352V14.8395V13.7503V13.2741H225.136H226.232H227.321H227.797C227.797 13.2741 227.797 13.4328 227.797 13.7503V13.2741H228.267H229.362H230.452H230.928C230.928 13.2741 230.928 13.4328 230.928 13.7503V13.2741H231.397H232.493H233.582H234.058C234.058 13.2741 234.058 13.4328 234.058 13.7503V14.8395V15.9352V16.4048C234.058 16.4048 233.9 16.4048 233.582 16.4048H232.493H231.397H230.928C230.928 16.4048 230.928 16.2483 230.928 15.9352V16.4048C230.928 16.4048 230.769 16.4048 230.452 16.4048H229.362H228.267H227.797C227.797 16.4048 227.797 16.2483 227.797 15.9352V16.4048C227.797 16.4048 227.638 16.4048 227.321 16.4048H226.232H225.136H224.666Z" fill="#141DFE"/>
</svg>
